<mxfile host="app.diagrams.net" modified="2023-09-12T21:37:32.989Z" agent="Mozilla/5.0 (Windows NT 10.0; Win64; x64) AppleWebKit/537.36 (KHTML, like Gecko) Chrome/116.0.0.0 Safari/537.36 Edg/116.0.1938.76" etag="XURa-flWnjqHRi0hGOuL" version="21.7.4" type="device">
  <diagram name="Page-1" id="1PbT0Z8Gxd14iS8OVchn">
    <mxGraphModel dx="985" dy="569" grid="1" gridSize="10" guides="1" tooltips="1" connect="1" arrows="1" fold="1" page="1" pageScale="1" pageWidth="827" pageHeight="1169" math="0" shadow="0">
      <root>
        <mxCell id="0" />
        <mxCell id="1" parent="0" />
        <mxCell id="KiHBWz9iV-Te058j2_ag-1" value="&lt;font style=&quot;font-size: 48px;&quot;&gt;Smiley Face&lt;/font&gt;" style="text;html=1;strokeColor=none;fillColor=none;align=center;verticalAlign=middle;whiteSpace=wrap;rounded=0;" vertex="1" parent="1">
          <mxGeometry x="110" y="10" width="290" height="140" as="geometry" />
        </mxCell>
        <mxCell id="KiHBWz9iV-Te058j2_ag-2" value="Nombre de pages à faire: 6 (smiley, connexion, création, modification, suppression, zoom)" style="text;html=1;strokeColor=none;fillColor=none;align=center;verticalAlign=middle;whiteSpace=wrap;rounded=0;" vertex="1" parent="1">
          <mxGeometry x="110" y="150" width="580" height="30" as="geometry" />
        </mxCell>
        <mxCell id="KiHBWz9iV-Te058j2_ag-3" value="Étape 1:&amp;nbsp; Hiérarchiser le SGBD" style="text;html=1;strokeColor=none;fillColor=none;align=center;verticalAlign=middle;whiteSpace=wrap;rounded=0;" vertex="1" parent="1">
          <mxGeometry x="140" y="350" width="250" height="30" as="geometry" />
        </mxCell>
        <mxCell id="KiHBWz9iV-Te058j2_ag-4" value="Étape 2: Concevoir la page avec les smileys" style="text;html=1;strokeColor=none;fillColor=none;align=center;verticalAlign=middle;whiteSpace=wrap;rounded=0;" vertex="1" parent="1">
          <mxGeometry x="140" y="500" width="320" height="30" as="geometry" />
        </mxCell>
        <mxCell id="KiHBWz9iV-Te058j2_ag-7" value="Étape 3: Concevoir la page de connexion" style="text;html=1;strokeColor=none;fillColor=none;align=center;verticalAlign=middle;whiteSpace=wrap;rounded=0;" vertex="1" parent="1">
          <mxGeometry x="140" y="890" width="300" height="30" as="geometry" />
        </mxCell>
        <mxCell id="KiHBWz9iV-Te058j2_ag-8" value="Étape 5: Concevoir la page de création" style="text;html=1;strokeColor=none;fillColor=none;align=center;verticalAlign=middle;whiteSpace=wrap;rounded=0;" vertex="1" parent="1">
          <mxGeometry x="155" y="1690" width="290" height="30" as="geometry" />
        </mxCell>
        <mxCell id="KiHBWz9iV-Te058j2_ag-9" value="Étape 4: Concevoir la page d&#39;affichage des 3 tables de la BD et&amp;nbsp;" style="text;html=1;strokeColor=none;fillColor=none;align=center;verticalAlign=middle;whiteSpace=wrap;rounded=0;" vertex="1" parent="1">
          <mxGeometry x="140" y="1310" width="420" height="30" as="geometry" />
        </mxCell>
        <mxCell id="KiHBWz9iV-Te058j2_ag-10" value="Étape 6: Concevoir les actions reliées aux tables" style="text;html=1;strokeColor=none;fillColor=none;align=center;verticalAlign=middle;whiteSpace=wrap;rounded=0;" vertex="1" parent="1">
          <mxGeometry x="150" y="2060" width="340" height="30" as="geometry" />
        </mxCell>
        <mxCell id="KiHBWz9iV-Te058j2_ag-14" value="&lt;font style=&quot;font-size: 18px;&quot;&gt;But: Obtenir le niveau de satisfaction des gens présents à un évènement quelconque à l&#39;aide d&#39;un seul appareil présent sur place&lt;/font&gt;" style="text;html=1;strokeColor=none;fillColor=none;align=center;verticalAlign=middle;whiteSpace=wrap;rounded=0;" vertex="1" parent="1">
          <mxGeometry x="250" y="190" width="270" height="170" as="geometry" />
        </mxCell>
        <mxCell id="KiHBWz9iV-Te058j2_ag-18" value="User(numEmploye, passwd, nom, prenom, recoverEmail)&lt;br&gt;Event(idEvent, nom, depart, lieu, date)&lt;br&gt;Satisfaction(i&lt;u style=&quot;border-color: var(--border-color);&quot;&gt;dSatisfaction,&amp;nbsp;&lt;/u&gt;high, mid, low)" style="text;html=1;strokeColor=none;fillColor=none;align=left;verticalAlign=middle;whiteSpace=wrap;rounded=0;" vertex="1" parent="1">
          <mxGeometry x="235" y="380" width="375" height="90" as="geometry" />
        </mxCell>
        <mxCell id="KiHBWz9iV-Te058j2_ag-20" value="" style="shape=image;verticalLabelPosition=bottom;labelBackgroundColor=default;verticalAlign=top;aspect=fixed;imageAspect=0;image=data:image/png,iVBORw0KGgoAAAANSUhEUgAABE0AAAJnCAYAAABieK1LAAAAAXNSR0IArs4c6QAAAARnQU1BAACxjwv8YQUAAAAJcEhZcwAADsMAAA7DAcdvqGQAAB+iSURBVHhe7d1Bbuy6gYbR5ywgk55m1MhyAmStAbKcRkY9zSQbuH2V5+r4ln9JlERJFHkOUHhGYlfpqkxW8QNV/vjtt99+/LwBAAAA8MUfPv8LAAAAwBeiCQAAAEAgmgAAAAAEogkAAABAED8I9scPnw0LAAAAjOPjY0okv7LTBAAAACAQTQAAAAAC0QQAAAAgEE0AAAAAAtEEAAAAIBBNAAAAAALRBAAAACAQTQAAAAAC0QQAAAAgEE0AAAAAAtEEAAAAIBBNAAAAAALRBAAAACAQTQAAAAAC0QQAAAAgEE0AAAAAAtEEAAAAIBBNAAAAAALRBAAAACAQTQAAAAAC0QQAAAAgEE0AAAAAAtEEAAAAIBBNAAAAAALRBAAAACAQTQAAAAAC0QQAAAAgEE0AAAAAAtEEAAAAIBBNAAAAAALRBAAAACAQTQAAAAAC0QQAAAAgEE0AAAAAAtEEAAAAIBBNAAAAAALRBAAAACAQTQAAAAAC0QQAAAAgEE0AAAAAAtEEAAAAIBBNAAAAAALRBAAAACAQTQAAAAAC0QQAAAAgEE0AAAAAAtEEAAAAIBBNAAAAAALRBAAAACAQTQAAAAAC0QQAAAAgEE0AAAAAAtEEAAAAIBBNAAAAAALRBAAAACAQTQAAAAAC0QQAAAAgEE0AAAAAAtEEAAAAIBBNAAAAAALRBAAAACAQTQAAAAAC0QQAAAAgEE0AAAAAAtEEAAAAIBBNAAAAAALRBAAAACAQTQAAAAAC0QQAAAAgEE0AAAAAAtEEAAAAIBBNAAAAAALRBAAAACAQTQAAAAAC0QQAAAAgEE0AAAAAAtEEAAAAIBBNAAAAAALRBAAAACAQTQAAAAAC0QQAAAAgEE0AAAAAAtEEAAAAIBBNAAAAAALRBAAAACAQTQAAAAAC0QQAAAAgEE0AAAAAAtEEAAAAIBBNAAAAAALRBAAAACAQTQAAAAAC0QQAAAAgEE0AAAAAAtEEAAAAIBBNAAAAAALRBAAAACAQTQAAAAAC0QQAAAAgEE0AAAAAAtEEAAAAIBBNAAAAAALRBAAAACAQTQAAAAAC0QQAAAAgEE0AAAAAAtEEAAAAIBBNAAAAAALRBAAAACAQTQAAAAAC0QQAAAAgEE0AAAAAAtEEAAAAIBBNAAAAAALRBAAAACAQTQAAAAAC0QQAAAAgEE0AAAAAAtEEAAAAIBBNAAAAAALRBAAAACAQTQAAAAAC0QQAAAAgEE0AAAAAAtEEAAAAIBBNAAAAAALRBAAAACAQTQAAAAAC0QQAAAAgEE0AAAAAAtEEAAAAIBBNAAAAAALRBAAAACAQTQAAAAAC0QQAAAAgEE0AAAAAAtEEAAAAIBBNAAAAAALRBAAAACAQTQAAAAAC0QQAAAAgEE0AAAAAAtEEAAAAIBBNAAAAAALRBAAAACAQTQAAAAAC0QQAAAAgEE0AAAAAAtEEAAAAIBBNAAAAAALRBAAAACAQTQAAAAAC0QQAAAAgEE0AAAAAAtEEAAAAIBBNAAAAAALRBAAAACAQTQAAAAAC0QQAAAAgEE0AAAAAAtEEAAAAIBBNAAAAAALRBAAAACAQTQAAAAAC0QQAAAAgEE0AAAAAAtEEAAAAIBBNAAAAAALRBAAAACAQTQAAAAAC0QQAAAAgEE0AAAAAAtEEAAAAIBBNAAAAAALRBAAAACAQTQAAAAAC0QQAAAAgEE0AAAAAAtEEAAAAIBBNAAAAAALRBAAAACAQTQAAAAAC0QQAAAAgEE0AAAAAAtEEAAAAIBBNAAAAAALRBAAAACAQTQAAAAAC0QQAAAAgEE0AAAAAAtEEAAAAIBBNAAAAAALRBAAAACAQTQAAAAAC0QQAAAAgEE0AAAAAAtEEAAAAIBBNAAAAAALRBAAAACAQTQAAAAAC0QQAAAAgEE0AAAAAAtEEAAAAIBBNAAAAAALRBAAAACAQTQAAAAAC0QQAAAAgEE0AAAAAAtEEAAAAIBBNAAAAAALRBAAAACAQTQAAAACCj5+3H79/+R8/fnz7nwAAAHb7+JiWHvtYnwBXSPOUaAIAAFRzJI7sYe0C1CKaAAAAVV0dSZZYxwBHiCYAQJOOLLq8b4FrtRRJ1pgfgC1EEwDgVlcvtryngTqeFErmmA+ANaIJAHCplhZa3t/AdjXH8D//9OfPr7b7r//9n8+vjjMXAHNEE+DRjrxxM6/BNVqKJGvMCzDvyFg+Eke2OhJTzAHAO9EEeISrF13mPDjmSaFkjnkAfrdnPF8ZSdbsjSjmAGAimgBNamnBZf6DcjXH7o9/fX6xw8cfP7+owBzAqLaO55ZCyZytAcX4B0QToAktRZI15kP47sgYPhJHtjoSU4x9RrFlPD8hlMzZElCMfxiXaALc5kmhZI65kdHtGcdXRpI1eyOKsU+PRokl78QTYIloAlyuZiz577/95fOr7f7x179/fnWcOZLRbB3HLYWSOVsDinFPT0rHdE+x5F1pPDH2YSyiCXCZI7HkSBzZ6khMMVfSuy3j+AmhZM6WgGLc82RiyXfiCfCVaAKcbk8suTKSrNkbUcyb9GSUWPJOPKFnJeN6pFjyriSeGPfQP9EEOM3WWNJSKJmzNaCYO+lB6VjuKZa8K40nxjxPsTauR44l79biiXEPfRNNgOq2xJInhJI5WwKKOZQnEku+E094upJxLZh8Z9cJjEs0AaoZJZa8E0/oUcl4HimWvCuJJ8Y7rVkb12LJOrtOYDyiCVBFaTDpKZa8K40n5lNatzaeR44l79biifFOKwSTeoQTGItoAhwilnwnnvBUJeNZMPnOrhNaJ5jUJ5zAOEQTYLeSBdZIseRdSTwxt9KKtfEslqyz64QWLY1tseS4pXhizEMfRBNgl7UF1six5N1aPDG/cjfBpB7hhJYIJtcQTqBvaS79w+d/Ab6ZJg3BZJu181FyTuEsa797gsk2a+fLWOcqS79rgkldS+fTmIc+TSPbThPgm7UXfrFknV0ntGRpTIslxy3tOjHWOZNgcg87TqBPaU610wT4RjCpo2TXCVxBMDnf0nk01jnL0u+WYHIuO05gHKIJ8Iu1F3rBZBvhhLst/Y4JJnUJJ1xp6XdKMLmGcAJjmEazy3OAf1t6gRdLjlu6XMe8yxkEk3u4VIcrzI1vweR6c5fqGO/wPGlutdME+DfB5HxL53Hp/MMegsl97DjhbHO/R4LJPebOu/EOfRBNgMUXdcGkLuGEKyz9Lgkm1xBOOMvc749gci/hBPolmsDgll7MBZNzCCfcRTC5lvNNbV4jnsnzBs8mmsDABJP7CCecZe73xwL+HnPn3TinJrtM2uB5gD6JJjAoweR+wgm1CSZtEk6oYe73xUK9LS7Tgf5Mo9dfz4EBzb14CybXm/urOuZitlh6Qy6a3M9f1OGoNMavCCZzfxnmRbTJ/EUdeKY014omMCDBpD3CCUfNjWvBpB1z4cQ4Z83c+D4jWKxFkjUiyu9EE3gm0QQQTBomnLCXYPIcwglbXRVMjsaSd+KJcAJPlOZcn2kCA5l740XbPG/sIZi0yeeb0KLawWRyxn0+jXAEfZheoe00gUHMvSm3y6Qddpuw1dy4Fk3aZbcJpebGd83F+Nlx4+5wkP59Vx6T3SbwLGneFU1gEILJcwgnlBJMnks4oUQa41cHk7XHq3EfZ2jpuNKxGOvQJtEEBpYmgBGDyVyQmLR0PoQTSogmz5bCiTHOy9z4rrXQX4oKex/jjPvcoySYvFxxXHPHY7xDe0QTGNTcG6+RoslSLEnuPjeiCWsEk+ez24QlaYzXXODPLeSPPsZZ91tqSzD56uzjS8dlrEN7RBMY0NnBpPWdG1tjyVfCCS1LY1sweR67TUjmXrvPjia17v/M+16yN5hM7ogmE+Md2iKawIDOiCZ7QsQdAeJIMHlpMZyYo5kb1zWiydzuhxdhpi67TUjSGK+9qJ9bxB99nLPud81SMPn62KXfd4b02MY6tCXNv/7kMHSslWAyqREwtqj1eFcfd4m555WxHY0Z0+J9LZhMSr+PMiIU7+6e45eiwpojP3uW9xBydhjZyms6tG8apXaaQKfSC/EdweSrK3ZurB1nOoY9P3OVdGzm6XHNvcE+svjeG0Es+OuYO//G+ZjSGD9roV8SOdYeu8Z91JCOY+lx54777GNNj2usQzvSHCyaQKfmFlZ7F/81d1ycGSCWjrPkcY/+/BnmjslcPaY0tu8IJi/CSR3peTDGx3RlNJmURI+j7ggRJY+59+eOEE2gbWkOdnkODOSsRf90v++31pQe05OPnf7NxdC9alxmU+M+yGo/37Tvjuf87Ehw9v33wFiHtokm0KErX3znFvQtLfS3Hsvc99fcbVODN1lMztrpMd3v+22OcHLc0vllbFdEhzMeY7pPweQ75wSeZ3rH7fIc6ExaTB+NGE+4PCcd45HHqn1/R6XjMV+PJY3tvYvtudCxdn97f65VLf170rEY42NJY/zqRfbRy3XuiAJPujxn4hIdaFeah+00gc6ctfugViy4Mzr06Kznm/Zc8VyXhIKnxpGvpjjxus0p+Z4rGOPjaOW5nqLB61Zqz8/wK2Md2iWawABaCR6CyTHOH+9qB4ySQHB3RDhibwTZ+3Nb9RCkqOvuCPE1hizd7paOYW3HzNEdNUe0cM6AcqIJsMnehbsFPzzDUhy4IhycpcaxP/nfD6wTM4BENIGOXLW1cwogr9uS0u/jGFt6+3fGc7y0q2GKA+k2p/UdEkvHvlXN+ypljMM+026S9x0l6X8DWDK9CvsgWOhEemM9UrCY+7DaPeeg5n3V5gNhx5PGdq1QcTQCPOGSkj3B585IlB7bGO/bXBiz82GbIzHkjnOdjtdYh3ul+dhOE6Abc0FjLoDMaTmYQG1HAsATgsmc6diXjn/p/79jtwnjEUwA2iCaQCds315WGk62BpZWeP45Yk/82PMzd4i7NjYc+1P+ncD+0CRQAUumd9kuz4EOpEXzqDsj1sJHOi97fuZO6XjN3X2aC2JnLebXdlE8LSIcjSaTGvexVXxMY7xbaZxbyB9TcqnO3efY5TnQnjQfiybQCdHkVzV3jLR4HkWTcaSxbfdDOdGEJxBNzpPCRCvnVjSB9qT52OU5QJdqhY6RwxP0KgWJOVu+F2jPFEjebwBbiCbQgVREOR48Wg4m6dj8HsB3cztCphiyFESW/n87fajJLpNxpefZazm0RzSBTtkh8bvpPOw5F84fjOEVR95vAAAT0QQYQkk8eX2PYAJ9qbkzxC4TABjLtP/LB8HCw6WtnBb+/fNhsP1LY9uifb+jO0iuPvfpeI3x/rg8Z2w+DBbakuZk0QQ6IJqMSTTpn2hyjq3x5K5zLpqMofdoUvKnf19GjEWiCbQlzckuzwEAhjJFkJIQUvp9wK+mEPC6bfH157b+LMBZ7DSBh7PLZGx2m/TNTpOx2Wkyhl52mpwZOXregZLOm3EO97HTBAAAqOaKXSFXPAbAHNEEAADY5I6QIZ4Ad3B5Djycy3PG5vKcvrk8Z2wuzxnD0y7P2RMtSv49W++3l0t20r/bOIf7uDwHAADYZUvYmKLG61bi6/eX/Mx0LHsCDsBWogkAADCrNFBsiR5rxBOgFaIJAADwzdZYcoYt8QTgDKIJAADwi7tjyTvhBLiLaAIAAPy/0mBytZJIMx27eALUJJoAAMBN0l9KuWvRXxIcSsLF2UrjSevSMfrLOdAe0QQAAAZXEhnujiXveggnQPtEEwAAGNQUFtbiQsnOjrusHVvJvw9giWgCAI1K27Q//vj5BV1Lz7Nt+9RWEhNajSXv1o5TOAH2Ek0AAGAgJbsv1nZwtEg4Ac4gmgAAQGPOWuCX3O/TYslXa7GnJBgBfCWawMOl7dr/+OvfP7+iZ+l5tn0f4HmumrvXYsFacHiStX/H3eEkPb7XcGiTaAIAAB0r2V3RSyz5qvVwAjyDaAJwg2mXyOsGW/kwWKBUSSzpMZi8CCfAUaIJwMXeQ4lwwhLbtcfjL+fwcmRBP/1sSTAZwVoYKjlXNV35WMBxognAhQQSAJKaYaxkUT5KMPmq5V0nwii0SzSBTpUszqfved04n/MMwNnWFv5ruy5613I4Adr08fP2LWsqnfA8Hx/TcP7Vf//tL59ffTe3gF/6GfZbCiZ7znm6P3N3v9L4nvz41+cXbFLrM2HOOP9zx2Z8j2FurG+JHEuL/pFjSXLHuZp7TGMc2pDmYTtNgF/YDVFf7WDCeHp9Mz0FgjtutdS8ryUWU+M467meAoBg8t3SOZnixlW7ToxxaJtoAnwzLfLFkzoEE3rzHiCO3ID63kOAWLJs7fxcFU6Adrk8Bzoxt6V3zyU6X1nY73dWMJm7X3N3386+REfE2KfmJTpzz4GxPZYal+iw3VocqXH+XZoD7XN5DnRszwvutHBfW7xPC/SSuMKvzgomc7zh6t+Zz7Fgss8VnyljbI/Hc36Pu6KU5xvaJ5oARYt44aTc1cEE2GaKHTVucCWXiZxvCidnxRPPHzyXy3OgI3su0XlXEkcs/OedHUzm7t+8PYazLtG5Y6eJ6PArl+bwLo13l+hc52vkOOvSHOMb2pPmXtEEOpMG+tbFunCyzxU7TNJjmLPHksZ4jQBREk6EjvOk829sj20ukgonz+OzTOA50tzr8hzgm2mBv7bInxbvJXFlFFcEE5hTY6fIFETWbpzjjp0+tM+Cum+eX3gO0QQGsDdulCz2hZPrgolzzcQb7TF4npnjszGexfMFzyeaQGdqv9G262TZVcFkjoUVL3YrPJPnjSXm+D55XuFZRBMYxNGoYdfJd1cGk1GjFJk33H3z/LLG7oVn8DxBH0QT6NBZb7hLd52M4MpgMsfCind2LTyL54sSc3O9BXnb5p4fr93wPKIJDKRW0CgJJz3Hk6uDSc/nkv288e6T5xUA2iKaQKfOfuM96q6Tq4PJHAsr5ti98AyeJ7aYm/PtNmmTXSbQF9EEBlM7ZIwUTu4IJj2GJ+qZewNuQd62uefHgoolwskzCCbQH9EEOnbVC3Tv4WQ6/juCyRxvvAD4Sjhpg+cB+vTx8/bt3bc35NCPj49pmH93186IqwPDUXf+e+Ye2xzNu7lx/uNfn1/QDLtMOGpuvP/zT3/+/Iq72GUCz5fmWDtNoHNzL9RrMWCvnnadCCY8xdzvhct02iKYUMPc74tdDvcSTKBfoglQXQ/h5M5gAjUJJ23wPFCTcNIWwQT65vIcGMTVl+lMnhoelo77imO2y4S9XKbTLrtMqG1uvE9cqnOdpVBlfMPzpLlVNIGB3BFOJndHiC0EE55OOGmPYMJZhJN7CSbQH9EEBrf05urOcDJpIZ60Gkwm5mW2EE7aIZhwNuHkHoIJ9CnNqT7TBAZy54v4WnRYiypnmh777mCyxJsvavG5GtdyvrnC0muEzzg5h2ACYxFNYDBzL+ZXRIsWw8naY14VTOaOw5sv9lj6vbGQv8bSeTauqW3pd0o4qUswgfGIJjCguRf10cKJYELPln5/hJNzCSbcYel3SzipQzCBMflMExjUnZ9v8nJntGg9mEzMxdSwNNZ9xkl9ggl38xkn5xBMYAxpDhVNYGAjhpNWYslEMOEqwsk1BBNasTTmJ+JJubVdOsY29EU0Ab4ZJZysPcZEMKFnwsm5BBNaI5wcJ5jAeEQTIHpCOJnsPRbBBH4nnJxDMKFVa+FkIp58V/IZMMY29Ek0AWa1EE4mNQNHyX1NBBNGsraIEk/KLcWSiTFNC4STbQQTGJtoAix6Ujj56nVse3/uKoIJrRBOjhNMeBrxZJlYAkxEE2DVU8PJFlfHkolgQmtKFlDiyXdrsWRiTNOqknE/GSmelMSSiXENYxBNgCJrb6qeHE9a2l0yMd9yJ+FkG8GEXognYgmQiSZAsZbCyeRoPGltd8nEXEsrxJNlYgk9Kg0nk57iSWksmRjXMB7RBNik5A1V6/GkxVgyMc/SmtIF1EjxpCSWTIxnnmyUeCKWACVEE2CzFsPJu1ekuPs4JoIJTyee/DwHYgkD2hJPJk8IKFtCycSYBkQTYLcnxJM7iSX0ZMviqad4UhpLJsYzPdoaTl5aCihbQ8mLMQ1MRBPgkNI3UyPFk9LLhcyrPNEo8UQsge/2BpTJlRFlbyR5MaaBr0QToArxRCxhLFsXT08IKFtCycRYZlRH4slXR0PK0TjylfEMzBFNgGq2vInqKZ6UxpKJuZSe7F04tRRQtoaSF2MZ9s8BLTGWgTWiCVDdKPFELIH/OLJ4ujKi7I0kL8YyZE8KKMYxsIVoApxm6xuoJwSULaFkYu5kNLUWTkdDytE48pVxDNu0GFCMY2Av0QQ41d43Ti0FlK2h5MW8ychaXDRtZQxDHXfMB8YvUItoAlzmyJumKyPK3kjyYr6EXz0poBi/cK2j84MxC5xNNAEuV2sBdTSkHI0jX5kjoUyLAcX4BQDmiCbAbVpcPG1lboRj7pgHjFsAoJRoAjThSQHFfAjXODovGKsAwFGiCdCcFgOKORAAAMYjmgDNuyOimPMAAADRBHi0o0HF3AYAAMwRTQAAAACCFE3+8PlfAAAAAL4QTQAAAAAC0QQAAAAgEE0AAAAAAtEEAAAAIBBNAAAAAALRBAAAACAQTQAAAAAC0QQAAAAgEE0AAAAAAtEEAAAAIBBNAAAAAALRBAAAACAQTQAAAAAC0QQAAAAgEE0AAAAAAtEEAAAAIBBNAAAAAALRBAAAACAQTQAAAAAC0QQAAAAgEE0AAAAAAtEEAAAAIBBNAAAAAALRBAAAACAQTQAAAAAC0QQAAAAgEE0AAAAAAtEEAAAAIBBNAAAAAALRBAAAACAQTQAAAAAC0QQAAAAgEE0AAAAAAtEEAAAAIBBNAAAAAALRBAAAACAQTQAAAAAC0QQAAAAgEE0AAAAAAtEEAAAAIBBNAAAAAALRBAAAACAQTQAAAAAC0QQAAAAgEE0AAAAAAtEEAAAAIBBNAAAAAALRBAAAACAQTQAAAAAC0QQAAAAgEE0AAAAAAtEEAAAAIBBNAAAAAALRBAAAACAQTQAAAAAC0QQAAAAgEE0AAAAAAtEEAAAAIBBNAAAAAALRBAAAACAQTQAAAAAC0QQAAAAgEE0AAAAAAtEEAAAAIBBNAAAAAALRBAAAACAQTQAAAAAC0QQAAAAgEE0AAAAAAtEEAAAAIBBNAAAAAALRBAAAACAQTQAAAAAC0QQAAAAgEE0AAAAAAtEEAAAAIBBNAAAAAALRBAAAACAQTQAAAAAC0QQAAAAgEE0AAAAAAtEEAAAAIBBNAAAAAALRBAAAACAQTQAAAAAC0QQAAAAgEE0AAAAAAtEEAAAAIBBNAAAAAALRBAAAACAQTQAAAAAC0QQAAAAgEE0AAAAAAtEEAAAAIBBNAAAAAALRBAAAACAQTQAAAAAC0QQAAAAgEE0AAAAAAtEEAAAAIBBNAAAAAALRBAAAACAQTQAAAAAC0QQAAAAgEE0AAAAAAtEEAAAAIBBNAAAAAALRBAAAACAQTQAAAAAC0QQAAAAgEE0AAAAAAtEEAAAAIBBNAAAAAALRBAAAACAQTQAAAAAC0QQAAAAgEE0AAAAAAtEEAAAAIBBNAAAAAALRBAAAACAQTQAAAAAC0QQAAAAgEE0AAAAAAtEEAAAAIBBNAAAAAALRBAAAACAQTQAAAAAC0QQAAAAgEE0AAAAAAtEEAAAAIBBNAAAAAALRBAAAACAQTQAAAAAC0QQAAAAgEE0AAAAAAtEEAAAAIBBNAAAAAALRBAAAACAQTQAAAAAC0QQAAAAgEE0AAAAAAtEEAAAAIBBNAAAAAALRBAAAACAQTQAAAAAC0QQAAAAgEE0AAAAAAtEEAAAAIBBNAAAAAALRBAAAACAQTQAAAAAC0QQAAAAgEE0AAAAAAtEEAAAAIBBNAAAAAALRBAAAACAQTQAAAAAC0QQAAAAgEE0AAAAAAtEEAAAAIBBNAAAAAALRBAAAACAQTQAAAAAC0QQAAAAgEE0AAAAAAtEEAAAAIBBNAAAAAALRBAAAACAQTQAAAAAC0QQAAAAgEE0AAAAAAtEEAAAAIBBNAAAAAALRBAAAACAQTQAAAAAC0QQAAAAgEE0AAAAAAtEEAAAAIBBNAAAAAALRBAAAACAQTQAAAAAC0QQAAAAgEE0AAAAAAtEEAAAAIBBNAAAAAALRBAAAACAQTQAAAAAC0QQAAAAgEE0AAAAAAtEEAAAAIBBNAAAAAALRBAAAACAQTQAAAAAC0QQAAAAgEE0AAAAAAtEEAAAAIBBNAAAAAALRBAAAACAQTQAAAAAC0QQAAAAgEE0AAAAAAtEEAAAAIBBNAAAAAALRBAAAACAQTQAAAAAC0QQAAAAgEE0AAAAAAtEEAAAAIBBNAAAAAALRBAAAACAQTQAAAAAC0QQAAAAgEE0AAAAAAtEEAAAAIBBNAAAAAALRBAAAACAQTQAAAAAC0QQAAAAgEE0AAAAAAtEEAAAAIBBNAAAAAALRBAAAACAQTQAAAAAC0QQAAAAgEE0AAAAAAtEEAAAAIBBNAAAAAALRBAAAACAQTQAAAAAC0QQAAAAgEE0AAAAAAtEEAAAAIBBNAAAAAALRBAAAACAQTQAAAAAC0QQAAAAgEE0AAAAAAtEEAAAAIBBNAAAAAALRBAAAACAQTQAAAAAC0QQAAAAgEE0AAAAAAtEEAAAAIBBNAAAAAALRBAAAACAQTQAAAAAC0QQAAAAgEE0AAAAAAtEEAAAAIBBNAAAAAALRBAAAACAQTQAAAAAC0QQAAAAg+Ph5+/H7lwAAAAC82GkCAAAAEIgmAAAAAIFoAgAAABCIJgAAAADBx4+fPr8GAAAA4N9+++3/AE4GkBQjI9+3AAAAAElFTkSuQmCC;" vertex="1" parent="1">
          <mxGeometry x="162" y="540" width="521" height="291.02" as="geometry" />
        </mxCell>
        <mxCell id="KiHBWz9iV-Te058j2_ag-21" value="" style="shape=image;verticalLabelPosition=bottom;labelBackgroundColor=default;verticalAlign=top;aspect=fixed;imageAspect=0;image=data:image/png,iVBORw0KGgoAAAANSUhEUgAABEoAAAJmCAYAAABL+GWXAAAAAXNSR0IArs4c6QAAAARnQU1BAACxjwv8YQUAAAAJcEhZcwAADsMAAA7DAcdvqGQAABlASURBVHhe7d3Pa9z3ncfx9+w/ke6yh7BoCjUm9BBCkU7pJUgOW598SGhCL6NDAxZLfXNyaHxTKBZ0D56LaUJ78MksiUT2EJ8swpLCEoIXIh1yWNj6r5j9fmdeoxmNJFeWrB/OPB7wjb7zHc13vrlEwzOf73s6VTVoNgAAAIC59w/5CQAAADD3hBIAAACAEEoAAAAA4tAZJYOBsSUAAADA/Oh02kRiRQkAAADAHqEEAAAAIIQSAAAAgBBKAAAAAEIoAQAAAAihBAAAACCEEgAAAIAQSgAAAABCKAEAAAAIoQQAAAAghBIAAACAEEoAAAAAQigBAAAACKEEAAAAIIQSAAAAgBBKAAAAAEIoAQAAAAihBAAAACCEEgAAAIAQSgAAAABCKAEAAAAIoQQAAAAghBIAAACAEEoAAAAAQigBAAAACKEEAAAAIIQSAAAAgBBKAAAAAEIoAQAAAAihBAAAACCEEgAAAIAQSgAAAABCKAEAAAAIoQQAAAAghBIAAACAEEoAAAAAQigBAAAACKEEAAAAIIQSAAAAgBBKAAAAAEIoAQAAAAihBAAAACCEEgAAAIAQSgAAAABCKAEAAAAIoQQAAAAghBIAAACAEEoAAAAAQigBAAAACKEEAAAAIIQSAAAAgBBKAAAAAEIoAQAAAAihBAAAACCEEgAAAIAQSgAAAABCKAEAAAAIoQQAAAAghBIAAACAEEoAAAAAQigBAAAACKEEAAAAIIQSAAAAgBBKAAAAAEIoAQAAAAihBAAAACCEEgAAAIAQSgAAAABCKAEAAAAIoQSAubO12qnO6lYeAQDAhFACwAns1sZSpzqdTh3aG7ZWh891ljaa3/z7djeWjhUuhoHjmOcEAICTEEoAOLHFxcXq3zkYLrYe9qvX6+XRi7N8b1CDxzdrIY8BAOBFE0oAOLGrt29Xb/tBfTFdSnY36k6/V9ev5/FYc3ypXWWSbbSAZLQypbu2XdVfGR5f2mhPtlWrnaXa2MjKlM5qc+SQW2aecc59C1TaFS7PXIkyWSEz/X4AAMwfoQSAU1iu673tejBVSna/eFDbvevNM9O2avX9qj8NBjVotp2745UoC3Xz8ehx9TaHzz2+OV4vsl1ra1Wbw9fcmzlfqzlnt/mFuzvD1w0Gm1WHrG45jq3Vbq1dHb3/6Pq+qxW3+AAAzCWhBIBTWb7eq+219azA2Kr1tl3cms0ay3Vv6paZhWs3anH7Se3k8VF6m4cFkth6WP3q1e29sLL/PY5tuAJmcd81L9w8ZKUMAABzQSgB4HSWr1ev+vWwLSVtvFi8UdcOqRXDga3jW1u6a7Wd46eyeKW62T2d7VrrTt96s9L8GwEAMI+EEgBOablutbfSPNwaDnFdvHHt4KqOrdXqrl3NbTTNtnO3FvPUqRxjVcrx9CbXtrc9rr3FKgAAzA2hBIBTG95K01+plf70rTBH21o/ZEXJd98/30yQrGS5Mxz+2tqq1eFckYX66dUahpuhduDryjPWhyxcqxuL0+cBAGCeCSUAnN4wNjQ/DwxxjeV7tdnr10pubblz5W5Nf3nwaGbJWnWb50bfenMcy3Vv527VWje3y9ypK38azShZvrdZvXyLTqf7pG5vPuurituBsjt148H4PNkMcwUAmEudZhuMdifaJccAAAAA86L9n2UtK0oAAAAAQigBAAAACKEEAAAAIIQSAAAAgBBKAAAAAEIoAQAAAAihBAAAACCEEgAAAIAQSgAAAABCKAEAAAAIoQQAAAAghBIAAACAEEoAAAAAQigBAAAACKEEAAAAIIQSAAAAgBBKAAAAAEIoAQAAAAihBAAAACCEEgAAAIAQSgAAAACi02yD0e7EYHDgEABzoNNp/ywAXA4+kwJwnsafha0oAQAAAAihBAAAACCEEgAAAIAQSgAAAADCMFcA9hw2zNXfBOA8+O8PABfNMFcAAACAGUIJAAAAQAglAAAAACGUAAAAAIRQAgAAABBCCQAAAEAIJQAAAAAhlAAAAACEUAIAAAAQQgkAAABACCUAAAAAIZQAAAAAhFACAAAAEEIJAAAAQAglAAAAACGUAAAAAIRQAgAAABBCCQAAAEAIJQAAAAAhlAAAAACEUAIAAAAQQgkAAABACCUAAAAAIZQAAAAAhFACAAAAEEIJAAAAQAglAAAAACGUAAAAAIRQAgAAABBCCQAAAEAIJQAAAAAhlAAAAACEUAIAAAAQQgkAAABACCUAAAAAIZQAAAAARKfZBqPdicHgwCEA5kCn0/5ZALgcfCYF4DyNPwtbUQIAAAAQQgkAAABACCUAAAAAIZQAAAAAhGGuAAAAwNwzzBUAAABghlACAAAAEEIJAAAAQAglAAAAACGUAAAAAIRQAgAAABBCCQAAAEAIJQAAAAAhlAAAAACEUAIAAAAQQgkAAABACCUAAAAAIZQAAAAAhFACAAAAEEIJAAAAQAglAAAAACGUAAAAAIRQAgAAABBCCQAAAEAIJQAAAAAhlAAAAACEUAIAAAAQQgkAAABACCUAAAAAIZQAAAAAhFACAAAAEEIJAAAAQAglAAAAACGUAAAAAIRQAgAAABBCCQAAAEAIJQAAAAAhlAAAAACEUAIAAAAQQgkAAABACCUAAAAAIZQAAAAAhFACAAAAEEIJAAAAQAglAAAAACGUAAAAAIRQAgAAABBCCQAAAEAIJQD8eG2tVmdpo3bzEAAA/h6hBIAzslsbS53qdDq1upVD09qI0Tz3PCFjd2OpOoeeDAAAXgyhBIAztbi4WP07B2PI1sN+9Xq9PAIAgMtBKAHgTF29fbt62w/qi+lSsrtRd/q9un49j/dMVqGMttUarR8ZHe+ubVf1V4bPLW0csg6lOe/S3muXauP7HN9z1Plntb/XvH53q1anzzfz7zB5r/2rZoYrXw553VHHj39dAACcNaEEgDO2XNd72/VgqpTsfvGgtnvXm2emtbGgW2tXN2swGAy3nbvf1cowGizUzcft48Wq3uj5xzcX8rqx5vXvr1Xd3cnrb9eTtX6eG9laPeT8R976s11r3Tt1ZWf8u9U8HgeMrVp9v+pPe+eZWjWzu1Hvr12tzTw3GDyu4aUedbzxfNcFAMBZEkoAOHPL13u1vba+FxnW255xa38mqd0v6sF2rzbvTY4v3Lxdvfquvj9OMcjrb+8FlOW6tzl1a89wFcvivvcdnn92tcuU3uYkZuy/lubcj2/W+J0Wrt2oxe0ntZPHVf16eOiSkEOOn+C6AAA4O0IJAGdv+Xr1xpFg62H1F2/UtXFlGNt5UtvZnejWlcXtejIpEEc79PWz2lUi07e4rDRX9Twm17LvNpru2uS9F27W45279d3K6Lm9W4SOOj502usCAOBFEUoAOAfLdau9PeXh1nCI6+KNa3urMfZ0r9Ridid26sn2Yl3p5uGzHPr6Wb2pW18O3gLz9+VatlarO30bzc7d/e/dRpHhc5t1da07mV9y1PFTXxcAAC+KUALAuRjentJfqZX+9O0xUxau1Y3Ffq1MTUXd3bhzcPXJd98fPrtj4ad1tfp1ZzI5tZZWptZl5Px7zx9Df2V6EOsh1xJb61MrSvZpV8Rkd5+p4ye4LgAAzo5QAsD5GAaB5ueBIa5j7cDWzerlW23arfvgRu0cmAWyVt0Dt660luveaOLq6PXdJ3V730qP9vw7deNBnh9vzxia2tu8XU9yS8xwBcn4Wpbv1WavXys5x50rd2tvGsrW6tT5R0Nah2NXjjp+gusCAODsdJptMNqdaJf8AsD8Gn0Dz5Pbg8QMAAB+7Nr/WdWyogQAAAAghBIAAACAcOsNAAAAMPfcegMAAAAwQygBAAAACKEEAAAAIIQSAAAAgBBKAAAAAEIoAQAAAAihBAAAACCEEgAAAIAQSgAAAABCKAEAAACITrMNRrsTg8GBQwBQnU77ZwPgYvmsCsBZGH/WtaIEAAAAIIQSAAAAgBBKAAAAAEIoAQAAAAjDXAE4tsOGufqbAZwl/90B4LwY5goAAAAwQygBAAAACKEEAAAAIIQSAAAAgBBKAAAAAEIoAQAAAAihBAAAACCEEgAAAIAQSgAAAABCKAEAAAAIoQQAAAAghBIAAACAEEoAAAAAQigBAAAACKEEAAAAIIQSAAAAgBBKAAAAAEIoAQAAAAihBAAAACCEEgAAAIAQSgAAAABCKAEAAAAIoQQAAAAghBIAAACAEEoAAAAAQigBAAAACKEEAAAAIIQSAAAAgBBKAAAAAEIoAQAAAAihBAAAACCEEgAAAIAQSgAAAABCKAEAAAAIoQQAAAAghBIAAACAEEoAAAAAQigBAAAACKEEAAAAIIQSAAAAgBBKAAAAAEIoAQAAAAihBAAAACA6zTYY7U4MBgcOAUB1Ou2fDYCL5bMqAGdh/FnXihIAAACAEEoAAAAAQigBAAAACKEEAAAAIAxzBQAAAOaeYa4AAAAAM4QSAAAAgBBKAAAAAEIoAQAAAAihBAAAACCEEgAAAIAQSgAAAABCKAEAAAAIoQQAAAAghBIAAACAEEoAAAAAQigBAAAACKEEAAAAIIQSAAAAgBBKAAAAAEIoAQAAAAihBAAAACCEEgAAAIAQSgAAAABCKAEAAAAIoQQAAAAghBIAAACAEEoAAAAAQigBAAAACKEEAAAAIIQSAAAAgBBKAAAAAEIoAQAAAAihBAAAACCEEgAAAIAQSgAAAABCKAEAAAAIoQQAAAAghBIAAACAEEoAAAAAQigBAAAACKEEAAAAIIQSAAAAgBBKAAAAAEIoAQAAAAihBAAAACCEEgAAAIAQSgAAAACi02yD0e7EYHDgEAAMdTrtnw44Pz6XAADnYfw514oSAAAAgBBKAAAAAEIoAQAAAAihBAAAACAMcwXguRw6zPXTv2UHTum9n2RnwucSAOA8GOYKAAAAMEMoAQAAAAihBAAAACCEEgAAAIAQSgAAAABCKAEAAAAIoQQAAAAghBIAAACAEEoAAAAAQigBAAAACKEEAAAAIIQSAAAAgBBKAAAAAEIoAQAAAAihBAAAACCEEgAAAIAQSgAAAABCKAEAAAAIoQQAAAAghBIAAACAEEoAuDyeflV1/+2q934ytTWP7/ervv0hvzTWPG5/9+Nm+3L2ucvmZbpWAID5JpQAcDl8e6vq1jtVj77JgbHm8aOPqj75oOppDrWe/ufod3ea7b+a/cvsZbpWAIA5J5QAcAl8VfXJZ6Pd7q+r1v9W9Wm29a+r3m2OzXplofnd7L/R7F9mL9O1AgDMuU6zDUa7E4PBgUMAMNTptH86ZrRB4zS+fLvqz980O69XrX9e9croMHOovd1qhs8lAMB5GH/OtaIEgEvkZyIJAAAXSigB4BL5n/1zSJ7ph6qPM/D1qAGp3/ZHA1T3DYed2T5ufmfP1Dm/zePZ4bLtYNljX+PYs671rN4TAICTEEoAuHg//9fsfFN16+1DvuHmBNrbeT75aDRAtb2lp9tss9pj/3zEzJD/61e994uDw2XbwbLtNZ5FuLiI9wQAYB+hBICL90qv6t1xyPim6pNfVH18q+rpCYPJ035mnjR+93XVp59Xfdhs7SyVvcGwzc/22G9+mccz/vxR84/mmt79y2Sw7O/Gr23OvflV9l+gi3hPAAD2EUoAuBze+nwqCjR2Pqu6lWDyvCtM/vs/Rj+7v6967dXR/thbv8030DTnH97qcpTXR4Nl35oKKa+tT4LOo63RzxfqIt4TAIBpQgkAl0cbBT79+mAwaVeY3D/n1RTv/vHwwbL/+LPsPM88lWO6iPcEAGAfoQSAS+bVBJP2tpPfZ/VH49E7x48l45knOx8dXI3y5QfN8Xbn9ZN9w84r4ws6RxfxngAAc0ooAeDyeq1X9eHXU7HkD8dbUdHOPHkz++1qlPferr1vvxnPLjlq9QYAAHNNKAHgknu16ldTA02PE0q+vVX1qPnZbV73Zjvfo3nd8Ntvcqwd8PrWzOwSAABoCCUAvESOebvMXz8b/fzVetVv8m034+3D5tjsgFcAAAihBIDLbxw+6mfHCCU/VP1vdv/q63QBAHg+QgkAF+yr0eyQ+/2Dg1efNo/vvz26jab17m+z8yyvVr0x/jrdd0bn3tsyq+QkXzkMAMBcEEoAuBwefZTBq1Nh41bz+FFmi7z5l+PPFXnrj5Nhru3tOt1s41kl468c/rg/+hUAAAihBIAL9suq9b9UvfvrxIxpzeM3f988/3XVb5rfO65v/z3DXJvXfvp51YfZxnNK2q8dbrVfH/yllSUAAEx0mm0w2p0YDA4cAoChTqf90zGjjQ+XRnsrzzvNz9er1j8/eqbJ/Z+MYkq7UuV5Igxnq11JNMPnEgDgPIw/51pRAsCPy9Pd7Dxr8OvUwNd/+pfsAACAUALAj9ZnVfcP+9abH6q+/KBqp91/vernvioYAIAJt94A8Fwu/603jeE35WQIbGtv9kk7yDW7bST53R+rXhNKLhW33gAAF2T8OVcoAeC5vBShpPX0q6rNP+wPJq02mrzxb1U//+Uzbs3hwgglAMAFEUoAOJGXJpTwchJKAIALMv6ca0YJAAAAQAglAAAAACGUAAAAAIRQAgAAABBCCQAAAEAIJQAAAAAhlAAAAACEUAIAAAAQQgkAAABAdJptMNqdGAwOHAKAoU6n/dMB58fnEgDgPIw/51pRAgAAABBCCQAAAEAIJQAAAAAhlAAAAACEYa4AAADA3DPMFQAAAGCGUAIAAAAQQgkAAABACCUAAAAAIZQAAAAAhFACAAAAEEIJAAAAQAglAAAAACGUAAAAAIRQAgAAABBCCQAAAEAIJQAAAAAhlAAAAACEUAIAAAAQQgkAAABACCUAAAAAIZQAAAAAhFACAAAAEEIJAAAAQAglAAAAACGUAAAAAIRQAgAAABBCCQAAAEAIJQAAAAAhlAAAAACEUAIAAAAQQgkAAABACCUAAAAAIZQAAAAAhFACAAAAEEIJAAAAQAglAAAAACGUAAAAAIRQAgAAABBCCQAAAEAIJQAAAAAhlAAAAACEUAIAAAAQQgkAAABACCUAAAAAIZQAAAAAhFACAAAAEEIJAAAAQAglAAAAACGUAAAAAIRQAgAAABBCCQAAAEAIJQAAAAAhlAAAAACEUAIAAAAQQgkAAABACCUAAAAAIZQAAAAAhFACAAAAEEIJAAAAQAglAAAAACGUAAAAAIRQAgAAABBCCQAAAEAIJQAAAAAhlAAAAACEUAIAAAAQQgkAAABACCUAAAAAIZQAAAAAhFACAAAAEEIJAAAAQAglAAAAACGUAAAAAIRQAgAAABBCCQAAAEAIJQAAAAAhlAAAAACEUAIAAAAQQgkAAABACCUAAAAAIZQAAAAAhFACAAAAEEIJAAAAQAglAAAAACGUAAAAAIRQAgAAABBCCQAAAEAIJQAAAAAhlAAAAACEUAIAAAAQQgkAAABACCUAAAAAIZQAAAAAhFACAAAAEEIJAAAAQAglAAAAACGUAAAAAIRQAgAAABBCCQAAAEAIJQAAAAAhlAAAAACEUAIAAAAQQgkAAABACCUAAAAAIZQAAAAAhFACAAAAEEIJAAAAQAglAAAAACGUAAAAAIRQAgAAABBCCQAAAEAIJQAAAAAhlAAAAACEUAIAAAAQQgkAAABACCUAAAAAIZQAAAAAhFACAAAAEEIJAAAAQAglAAAAACGUAAAAAIRQAgAAABBCCQAAAEAIJQAAAAAhlAAAAACEUAIAAAAQQgkAAABACCUAAAAAIZQAAAAAhFACAAAAEEIJAAAAQAglAAAAACGUAAAAAIRQAgAAABBCCQAAAEAIJQAAAAAhlAAAAACEUAIAAAAQQgkAAABACCUAAAAAIZQAAAAAhFACAAAAEEIJAAAAQAglAAAAACGUAAAAAIRQAgAAABBCCQAAAEAIJQAAAAAhlAAAAACEUAIAAAAQQgkAAABACCUAAAAAIZQAAAAAhFACAAAAEEIJAAAAQAglAAAAACGUAAAAAIRQAgAAABBCCQAAAEAIJQAAAAAhlAAAAACEUAIAAAAQQgkAAABACCUAAAAAIZQAAAAAhFACAAAAEEIJAAAAQAglAAAAACGUAAAAAIRQAgAAABBCCQAAAEAIJQAAAAAhlAAAAACEUAIAAAAQQgkAAABACCUAAAAAIZQAAAAAhFACAAAAEEIJAAAAQAglAAAAACGUAAAAAIRQAgAAABBCCQAAAEAIJQAAAAAhlAAAAACEUAIAAAAQQgkAAABACCUAAAAAIZQAAAAAhFACAAAAEEIJAAAAQAglAAAAACGUAAAAAIRQAgAAABBCCQAAAEAIJQAAAAAhlAAAAACEUAIAAAAQQgkAAABACCUAAAAAIZQAAAAAhFACAAAAEEIJAAAAQAglAAAAACGUAAAAAIRQAgAAABBCCQAAAEAIJQAAAAAhlAAAAACEUAIAAAAQQgkAAABACCUAAAAAIZQAAAAAhFACAAAAEEIJAAAAQAglAAAAACGUAAAAAIRQAgAAABBCCQAAAEAIJQAAAAAhlAAAAACEUAIAAAAQQgkAAABACCUAAAAAIZQAAAAAhFACAAAAEEIJAAAAQAglAAAAANFptsFoFwAAAGC+WVECAAAAEEIJAAAAQAglAAAAACGUAAAAAERn0Mg+AAAAwByr+n+oZ1GjUQnbpwAAAABJRU5ErkJggg==;" vertex="1" parent="1">
          <mxGeometry x="162" y="930" width="590.13" height="330" as="geometry" />
        </mxCell>
        <mxCell id="KiHBWz9iV-Te058j2_ag-22" value="" style="shape=image;verticalLabelPosition=bottom;labelBackgroundColor=default;verticalAlign=top;aspect=fixed;imageAspect=0;image=data:image/png,iVBORw0KGgoAAAANSUhEUgAABEoAAAJjCAYAAAAbNfQkAAAAAXNSR0IArs4c6QAAAARnQU1BAACxjwv8YQUAAAAJcEhZcwAADsMAAA7DAcdvqGQAADCbSURBVHhe7d29VhpdGwbgzXcskCIrRzAeAdqksk0HpTR2KdOlwVK7tKnSCEcgR5D1FoFz4ZuBR0SFGUB+9brWO+tF5Wf+mLBv9n52LaU0zhcAAACAD+9/8X8AAACAD09QAgAAABAMvQF2Yjx2aQEAeKlWK5pgz/ncdFoWHUPel9KgxBsWWIV/8AEAVuNz0+lzDN+PZaGXoTcAAAAAQVACAAAAEAQlAAAAAEFQAgAAABAEJQAAAABBUAIAAAAQBCUAAAAAQVACAAAAEAQlAAAAAEFQAgAAABAEJQAAAABBUAIAAAAQBCXHqN9OtVotX9qpH78CAAAAdk9QcoT6f+6mN1pfU3N6CwAAYA2j1L9pp7Oz4gvYp+XsrJ36o1HcB1ikli/j6c3XxuOlf2Jn+qldO09FVNLqjdOtpIQTUPyj+5LrBwDAa/v43DTqt9O387s0iJ8Xyrpp+HCV6vEjq/PZ9/1YdCwLJ9GjpN+OBPTsJlVmn6ObdFbct3aWbk4xKO3/mYQkKbXS17mQpLjYTfZBxXJ2khsNAABsw+jmLDUeQ5Kslbq94aQRP12GadjrplaW/23QSd9Ooe2gLAEHYOjNkVk67Obf37gBAACwwOgmfetEP5JJj5HbdNWc7zNST/XmVbp9GKbeJC0BFhGUHJP8wvZjkpNkqXu9ZMxNccGbJcKvl4crnecAAOAj6v/sxHCbVuqVDqupp+btg7YDLCEoOSKj+9/RRe4yXbhmAQAAq5p96Zpbe1KIUbqJoq/tYnzLqJ/ac0VgFw3vH/Vv8vucze4zud9ZO930lw3nKYrLvn5MLf/5LH/Rl48qhhBN/n7+uFF36fzZ4xaXZVh/vfYk36c37Xxb59arKBdx1r5ZsG758Sjum29HW2mFgxCUHI1Ruv89zX+zywtFlQAAgNUN/5sVb23NFztc17+bdNY4T3ePT5Yb/DeMW4VpqNI47+T3Ke6UpSybDuMZDO5S57yxIFgpJqxopPPO88dMHpX/PLg7T41iNp7i50efvjzd51Hx8+Py5dOLNtMm67Un/fZkn3bynTq3W3PFtnfydfv2vL7m6D79Lu6bb8fd7/uFgRC79QGDkgXTZBVJXUnCuF4quX4aO1G8GSbvmixdbqE7ySyBLS169LSutcnKPvem7S7284vEtEhLDx3kAgDAezSa1TTM0udG3NzAXacYvpOl1qwI7DAN58oC9NuNNC2DkqXusPj7Q3p4eJjcd9hrTe4z6DSiTTAvf85uL8oITB/zUNwedvO/5AZ36cdcW6nevJ3eJ55zOpwoHlcsL6YH3Xy9di1vD84V1+1N1i2W4TD1uq3p9s+rf0qX8cvs8mUgxMyOC/0W8xgtXI5Ffl5P1ynrjvM3Vrlhd5yfU/n9s3H+BnlhOO5mT9uXsmyczf2cvXrAi/vnz5nlj3n6ufwxre7juswtrV7c77lhN553yTZW/f2V2X7I12PxS5bcZwfbPVsWHRdO3aJjDQDAa7v63DRrM6XWeNnH/+Wef/6vbj8s/0w/W4+lT/Ja6WN6rVivku3a0XotM12f58sys3acdtD2rXJuVJg/hvPLx+pR0v8ZKWMkeZM0skjzFld9fmsqWZXGPumnn1GdemvDbuoXsxTy7s/iFZzVRHkxFfHWtnuWGE8fN12dQer83HuMCwAArCDrDtOLzhozq9RUbH6NHiB3f1b+lr/xORouf/+lTTqg72q9tutL+qRryMn4UEHJrDtaUdzo2Um6oOrz/Aw0w4f0siB00RUsMoOlQUSh1XvILzSPD66n+qI3R/9PmpYoaqXvVZWnB53UmBvOMr88H9ZTTxdPScmCi8FcTZTu9VOxp61s9/Sxt1fNWehTPO5Xt2x9AACATc3Chh0a/jdtPxRtkm9n02Kjr5ZZ8dVFRtPh/e2iFMLTY2ZTGm/o7eu1D3/Tv5VToKeyBstKNywqk/BqeVbwdvelEhauU7Hv8xccLXze6u1cNLxm00K/6/hQQUn905fpjbsflVWPt5FKlqWx8/p/4gCvXZ26XP3qe5qu4fPxfhNLaqJsZ7t/vQpYCrP9v9ZFAgAAWN1+PmsXhUYXLvH3lH2OG1OjoqBprTEttnp3t/gxW/DseeeX+PvL9dq1+sXlU8/6xtlWZt8pgoKXRWtfxmSLC96GomBvUVz3RXHZorDsebGOa6/iaDJLz9M6zSn2fVGsN3/erdWHWbvQ7/o+1tCb5nWadmrIT9LzRqqVTBO1v1Syn55ykhVikqw7G87ycnk9D3ozPWYagxfVkpcFIjvd7sbnV29gAADg7eYb5L/vd5yUlLRJZsvD1dOXwP123oieFjTNWvlj5wua5svwsef5W627XvtQv3rqWT/XDu0v7mJRbXQz64EzLfEwLZNQFMYddqPxV4xUKH635Fv7bZdKmJRuiGmSstbTc06fN4r15s97d76doqvrFvrdxAeb9aaerh7mKgvHNFHF/NXtm9dzdz9amEgWS/z9Tank3LCbt8zitcys98fgd3q6Xj4Nu2l9v1qati3c5mKJv+87jQUAAJaYq1E46PzcSoP0pdnwnsF/aX7C4CqzHvRZN/26zdsfb/26/4VN12tf6lcPc0FELm+HnjfKv7hf5ukL7266fl5PIn+dx44Bd6mkOkRui6USZqUbilUaTkKK+bWqN6/Sw+PMRotGOhypkwhK1jrx5+YPX6yemle308St103TGq6DdNc5T41FfYF2nEruatjNTPNrDL+ZS5bnitouDWeOMY0FAACWmKtRWNRsKOpCxE+LTOo8rDkW4qnXSlVDfIklQyJmvdpLLR9S9Ob12oNJL4hico8XgUnxxf2khkf8ah+2WSphFtwUvViW1dusX6XvS0Y6HKuTCErWOWBP84dXVxUu0q3bh7muXkXtknj+vaSS84VTF86Gsw3NdB3b93hSloUzx57GAgAAixU9F2ajEYq6EAuGeEwLbtZSY5MCqnMN3rvzJfU28tcrioS25/42a2PMtbemprUtSkf2z4bvzw8pGuUvM/dEG67X/tUjMJn/0j7fsuJYrRhazUKhQSf9fLEto5tvs9lLPzcmv1rPBqUSZiFX9jmVveSptTNPY+jNXK+IzreSCrZz47WezeRS4SmBfLKPVHKVwqnb8PRmKobflNdEOYU0FgAAWKx5O0y9pxb4dIjH3Iwg04Kb+d+KHuQb1HJo3vZmvfKnZQxqs1qGk9fIX68oEvr33+TuE0+TTOSPaRSzkhT3L9ZnWtuiKMC51LMhRY/b0kiNb897JmyyXoc0/dJ+GENlcq9CpCWehULFdkYdyXwbH8OvZT1GdmoLBVSPyYnUKHnqFVEkZ6+T0WKaqXY6axRFaQqLuv0UUw8tqkUySv1Zd6G5Xig7TyXnpue9vNjtSTW7uBQXpvM07cRSjGkrbrxwMmksAADwWj01bx/SeNhL3daLmUHyn4piqr3hcDKMfrM2SHPSwJ/2iJg++2Mtw8nMI/H8zyeayB8zngY402ZJcf/i7q3U7eX3/f44gmCRaZ3JYlueZKn1qg21yXodWr5tj42vvK323ypdLfJ276QHTr7vWpN98lRHcrY/D7GNf/+9aGefvvGy5dgMu9nC9Xy2ZK1xbxgPeGY47mbz98vGWb7MP7bVi7vO9Mb5uffsPsVjXj4u686/4NPrPP/9C8PuOD+t8/tl47K7PVpp24vl9UZMvHx86brtarvX3GZOx/x58bgAAPCaz02nb6vHsNeK55hvIy1vW/Va098vafaV2E177amdmbfD43eLPK53yrr5mjxaYZ1m+2fB85f9bUXTx79eTmrWm2LM3eJk9Ck9Gz/cphfFf8PcjDeT4C3SxVmqOk6ve57tLpVce9jNrE7LZp66uxWydFn6oqeYxgIAAJyWWf3IFWpsFqMSHkty3v3ZbwHYZZ7qiZbMaDM/M86S0RSLi7yO0s3jA0utXnx2HQsTlGJhV1bsdQIn4uW1o1gAAHjN56bTt/ox7I1b+d+yVnfc7Q3nelLkhsNxr/XUY/95u3B5e3H5SIPpCIAsa71+rYnd9CiZf97pc/eevfaw14rnzJdnvUmm5rdn/rHDXvfFKIcFvUZm6zu/Tfm25/t2VU/P/3w5qR4l78bc9LxLp1ACAADg5A3uOpMCs41JIdpYorhsIWv1Vu6tX7/6lbqzoQJZyooe/8XyWKskphxunJVMgrJVxciNx0K6+bZ2zp9tZ+P8LkZStFJvQV2cyfYseOy06HCWWsUoh+mfX1ux0O8mBCUHUDY9LwAAAO9BM90WpSMm5R+iRT8zV9JgndmHii/dJ8Vcu2k4fkgPD7GMx0W3lkn5hMkrDTrp20rT6GzDY+mG19tZ/Nzq5X8rSmTE756LEhkvymtM981Dum1+it8ssmqh3/XV8qXoWrLQtCcK21XMvtOY9Chp9RbVRYHTU6S3L7l+AAC85nPT6TvcMeyndq2YxTRL3eHD0imA++3adGacVi+NNThLLTqWBT1K9q5IvaZpn3MWAACAlYz+pWkt17LCr08FX7PPjekN1iYoAQAAgJNxl87bi2a9GaX+zbeoh1k10yllDL0B3kwXUgCA1fjcdPoOeQz77bNZEdiJSSHXQlHIdXIjV9QF+ZVum4KSKsuG3ghKgDfzDz4AwGp8bjp9hz6Go1E/3f/8kX7fDaYzyjwqCqdefk/XF81Ul5GsRFAC7Ix/8AEAVuNz0+lzDN+PZUGJGiUAAAAAQVACAAAAEAQlAAAAAEFQAgAAABAEJQAAAABBUAIAAAAQBCUAAAAAQVACAAAAEAQlAAAAAEFQAgAAABBq+TKe3nxtPF76J4CZWq24lDzn+gEA8JrPTadv0THkfdGjBAAAACDoUQK8mW9GAABWozcCHD89SgAAAACCoAQAAAAgGHoDvJmhNwAAqzH05n3y2fd9eHx/6lECAAAAEPQoAd5MjxIAAODU6VECAAAA8IKgBAAAACAISgAAAACCoAQAAAAgCEoAAAAAgqAEAAAAIAhKAAAAAIKgBAAAACAISgAAAACCoAQAAAAg1PJlPL0JsD3jsUsLAABwOmq1IiLRowQAAABgRlACAAAAEAQlAAAAAEFQAgAAABAWFnNVhBEAAAD4SBRzBQAAAHhBUAIAAAAQBCUAAAAAQVACAAAAEAQlAAAAAEFQAgAAABAEJQAAAABBUAIAAAAQBCUAAAAAQVACAAAAEAQlAAAAAEFQAgAAABAEJQAAAABBUAIAAAAQBCUAAAAAQVACAAAAEAQlAAAAAEFQAgAAABBq+TKe3nwyHr/61dGo1YpVBgAAAN6LY8ghHvMGPUoAAAAAgqAEAAAAIAhKAAAAAIKgBAAAACC8i2Kux7y+AAAAwJNjbdcr5goAAADwgqAEAAAAIAhKAAAAAIKgBAAAACAISgAAAACCoAQAAAAgCEoAAAAAgqAEAAAAIAhKAAAAAIKgBAAAACAISgAAAACCoAQAAAAgCEoAAAAAgqAEAAAAIAhKAAAAAIKgBAAAACAISgAAAACCoAQAAAAgCEoAAAAAgqAEAAAAIAhKAAAAAIKgBAAAACAISgAAAACCoAQAAAAgCEoAAAAAgqAEAAAAIAhKAAAAAIKgBAAAACAISgAAAACCoAQAAAAgCEoAAAAAgqAEAAAAIAhKAAAAAIKgBAAAACAISgAAAACCoAQAAAAgCEoAAAAAgqAEAAAAIAhKAAAAAIKgBAAAACAISgAAAACCoAQAAAAgCEoAAAAAgqAEAAAAIAhKAAAAAIKgBAAAACAISgAAAACCoAQAAAAgCEoAAAAAgqAEAAAAIAhKAAAAAIKgBAAAACAISgAAAACCoAQAAAAgCEoAAAAAgqAEAAAAIAhKAAAAAIKgBAAAACAISgAAAACCoAQAAAAgCEoAAAAAgqAEAAAAIAhKAAAAAIKgBAAAACAISgAAAACCoAQAAAAgCEoAAAAAgqAEAAAAIAhKAAAAAIKgBAAAACAISgAAAACCoAQAAAAgCEoAAAAAgqAEAAAAIAhKAAAAAIKgBAAAACAISgAAAACCoAQAAAAgCEoAAAAAgqAEAAAAIAhKAAAAAIKgBAAAACAISgAAAACCoAQAAAAgCEoAAAAAgqAEAAAAIAhKAAAAAIKgBAAAACAISgAAAACCoAQAAAAgCEoAAAAAgqAEAAAAIAhKAAAAAIKgBAAAACAISgAAAACCoAQAAAAgCEoAAAAAgqAEAAAAIAhKAAAAAIKgBAAAACAISgAAAACCoAQAAAAgCEoAAAAAgqAEAAAAIAhKAAAAAIKgBAAAACAISgAAAACCoAQAAAAgCEoAAAAAgqAEAAAAIAhKAAAAAIKgBAAAACAISgAAAACCoAQAAAAgCEoAAAAAgqAEAAAAIAhKAAAAAIKgBAAAACAISgAAAACCoAQAAAAgCEoAAAAAgqAEAAAAIAhKAAAAAIKgBAAAACAISgAAAACCoAQAAAAgCEoAAAAAgqAEAAAAIAhKAAAAAIKgBAAAACAISgAAAACCoAQAAAAgCEoAAAAAgqAEAAAAIAhKAAAAAIKgBAAAACAISgAAAACCoAQAAAAgCEoAAAAAgqAEAAAAIAhKAAAAAIKgBAAAACAISgAAAACCoAQAAAAgCEoAAAAAgqAEAAAAIAhKAAAAAIKgBAAAACAISgAAAACCoAQAAAAgCEoAAAAAgqAEAAAAIAhKAAAAAIKgBAAAACAISgAAAACCoAQAAAAgCEoAAAAAgqAEAAAAIAhKAAAAAIKgBAAAACAISgAAAACCoAQAAAAgCEoAAAAAgqAEAAAAIAhKAAAAAIKgBAAAACAISgAAAACCoAQAAAAgCEoAAAAAgqAEAAAAIAhKAAAAAIKgBAAAACAISgAAAACCoAQAAAAgCEoAAAAAgqAEAAAAIAhKAAAAAIKgBAAAACAISgAAAACCoAQAAAAgCEoAAAAAgqAEAAAAIAhKAAAAAIKgBAAAACAISgAAAACCoAQAAAAgCEoAAAAAgqAEAAAAIAhKAAAAAIKgBAAAACAISgAAAACCoAQAAAAgCEoAAAAAgqAEAAAAIAhKAAAAAIKgBAAAACAISgAAAACCoAQAAAAgCEoAAAAAgqAEAAAAIAhKAAAAAIKgBAAAACAISgAAAACCoAQAAAAgCEoAAAAAgqAEAAAAIAhKAAAAAIKgBAAAACAISgAAAACCoAQAAAAgCEoAAAAAgqAEAHh3Rv12OjurpVptfjlLZ+1+GsV9AAAWqeXLeHrzyXj86ldHo/ig89Ixry8AsGejm3TW6KRB/PhSqzdOt834AQDYu2Nt1z+ulx4lAMC7Mrr/vTQkSSlLnxtxEwBgAUEJAPCOjNL97+UxScou00U9bgMALCAoAQDej/7P1CnNSS6SnAQAKCMoAQDejf6fu7i1SJYudScBACoISgCAd6KfynMSw24AgGpmvQEA3od+O9XOlyclZrvZhlEa9Yfp/s+f9Pvv3/znQRq8GuqUpSxL6cuXL+nz16/potFMdQEVAHPMegNQaZS3b84mF6aDLGc3+RqU6af22bL1O0vtm/JH79d0X569eV2P/ZiUG920l+yD6XJ21k43/T0ft9GS8yj/3U0/7lPhoMdkg+Vsz++N8mE3rfR1jZBk1M/PoQXHq/hde9/nzky8v8+er1Px3i7O6d2tVhGOFPujeK1Gapyfp87dXRoMFoUkheL3g3SX36eT37fRiHVs3+xgHU/5WrXNdS/OgenSbhfXt34aHeo0BXgnitjm2XLMTm19gWq91uv39X6XbNwdxsos0msteMz8UvH4fapa16w7XmVVj/6YlBh2swXPt3jJWr141O6V7tNVjsuwO84WPfaol9Z4b3u4av+sdax749ai55gte9yueVXv762fz8Nxr9va/nmXtcbd3nYumqd8rdrXumet7nhLuxtgaxZdr47B47roUQIc2Cj9K3pvH9Qg/TeMm4s0Pqe8oVBikH7fH8dXd+XfqOe+fFphxo8TOCZLVUwN+8Lg7nzvvR42Nvwv3yssM7r/Xbp/Wut0JyHfoTepfdZI55277Z93g6KnSePNPcdO/Vq1r3Uf3HXSedGr5xA96QBOlKAEOLBh+u8IWn9//5V8eKxfpMvypCQNft+/8QP/NlQUskxZ6l6v0lg8gWOy1PrrPuh8S6eSlbBMVUC23rCbj24yzKbRSXe7vg4MOqnxprDkY12r3iwCqmIIlEseQDlBCUDuy6eyfhb1dFGdlKSDdyrp/0nlOclpzfhRfky2aZA6P1csEnJIlT2bPrDRfSrLSbLudZKTrKjfTo3zHfQiWeYYrp1vtL9r1XYUPUwatTMBMUAJQQlA3vz83IibS9QvLo9++E3VsJvs8mKFYTfHovqYbNXdeWofe1ZS/5S+xM2TkX1O+ziM5cNusnRpTuDVjG7SWcmsQUtlxSw3j0v87sPY87Vqawap0xCWACxjemDgwPqpXTuv6AmRf/iOmzvx5Xt6qJwzdJRuzhqpU/Y1a9ZNw4erA4URVfsxS93hQ7paaeVO5ZgsssK6L7Pj49dv19LSNuiKr13M5vPt99sLGxQzkpTbToP3y/eHPUzHW3HMNzquVedRK/XGt/vvpVIx/XFq9dJ44x2+wjVuJkut7vd0fVE27W8xU859uv/zO3VKx/Csc2166X1fq7JWa7Vw9O/f9Dctm4GoyoHOZeDDO9Z2/fx6Taq6zi/H7NTWF6hSNbvE8cwoUz2bygHXdUuz3UydzjF5rWrdy5ddToLz5llvtqhqto3seA/waxXn/mbb8vFmvVl1tqis29voXB3m655li57zLdeT93yt2nDdh8P8NMnWm6loj7N/ATxadD06Bo/rYugNwIqOefjN+xp2czh35+10AtVKmFN+7ht2s5p++lnZlaTo+TFOD1fNja4l9eZtengYp2Gvm1o77eLxwdXrqXn7kB7Gw9TrrrijT2HoIcCeCUoAVlW/St9bcXuJQefnARra1bPdaCxOFV3Zy5sOd+mHQfsnpOLcb33fcEjHB1NVCDqXdX9tZV/Wm1fp9mGYhr14L55YkenTUU/Nq4dUdB9bJS65+yMpAZgnKAFYQ/NrRVKSNzf2/nnznc12s1Ofr4807GIjFed+y5zAK6nqkVbUefm11cSpPu1hMh6n8cHqOn0QxX7uVf27lbv747oHMEdQArCO5tdUGZXsOSkx7GY9zetuZa+Sc/3QT0L5ud9KcpJVjNK/ivrAriEnrnmdqkfhHCDkBzhighKAtTRTdaeSfX4zVzXsppW+G3swM/hvuNIQqnT3w7SZx250k36Udycxk8dKhum/0vIkhu6dvnq6qrzo7T/kBzhmghKANR3V8JuqYTcaiwtV9yoZpM5PjYZjNrr/nR+l5Qy7WdHoXyrvUPIlfZKTnL4VekOmv/+SfBhgSlACsK4jGn5TNexGY3GJlXqVmAnieI3S/e+SmCTrpmunPsxppM+rVHUFYEJQArC2Yxl+Uz3sRk6yXHWvkvww/rjxDesxGt2n0pxETY0t+pv+eRO8A/X06UvcBKCSoARgA0cx/Mawm7dZpVfJoJOMwDk+5cNu1NTYrkEqSvsAwEciKAHYxAqzCOx6+I1hN2/XvO1VD6M6b5s286j0089OaXcS02Gvo/4pVXU0UOQTgI9GUAKwkXq6uKxMSnbYwDbsZjua6bpy3sy79MMUOMejoieVYTfrWqF2hVmgPoYvn7x3AIKgBGBD9YvLihoXOxx+Y9jN1tSvvlf2Khl0fupVciTKe1IZdrO+VWpXDFLnm3o9p60qXAdgnqAEYFP1i1TdqWQ3zWvDbrapmW571TVnzk2BcwQqGnut7+lKTrK26ppLuUEnNbwHTlflNND+3QCYJygB2Nihht9UNBZNjbq+FWrOGH5wBCp6UmnobWiFKc8n7s5Trd3Xs+QE9X92SgogFwzXBJgnKAF4g4MMv1GjYQfq6ap6CpzUMQXOAY3SzY/SmERDb2Or1OoJd+epcdYWGp6S0U0qfesUDNcEeEZQAvAWBxh+o0bDjjRvU/UIHL1KDmZ0n36XfSWuofcm9atf1b2qHg3uUqdRS2dF7xLvh+M26qd2o6o3SZa6uiECPCMoAXiTfQ+/qRp2Y2rUt2hedyt6CClqeSij+9+ljT3Dbt6qnq5+VZ3/zw2K3iUCk+M1uklnjfPywt8FtX0AXqnly3h688l4/OpXR6NWK1b5uWNeX6BKP7Vr5R/kslYrVU7KsJbP6ev1VWpu7YNh9Ta0euN0u412XL+daufLXynrDtPDmz/xnvIxqVj3Vi+NKw5Ev11LJbt4YpPjWfq8WTcNH672NmSqahu3cx5t0yjdnDVSZ1lSsvX9V/UeaKXe+Hb/PVgq3v+rnN+Vql6jRNbqpu9bvbZWecfXqqKXx/BhswBjNEr9n9/y93h5P5KJPV97AB4da7t+fr2KtXm2HLNTW1+gSm/cWvC+3vmSdcfDWINt6LUWvMb8krest6H8dbJxdysbdcrHpGLdVzkOw+44W/TY+WWDdS09dls+H6tUna/Zdk6k7ak4Jttf36r3QCu/xwH0WgvWZW7Z0nVm2M0WP/+KS9bqjnt7OYXe8bVqnev5cJj/1xv3uq1xK1v0XEuW7EDnMUBu0XXpGDyui6E3wMc0+C8N4+Y2VE6vuZXhN+982M2Wj8nG6lfpV1WxhkEnfVOsZG/KZ+xQl2fb6lcPadhrrTUMZ97grpPOG7VUO2un/nt8m+zlWjWY1IEpvtmsXBqN1Gicp/POXVqlE8nEpCfJAXpFAZwIQQnANlROr3mXfry1YW22m72pX32vnC510Pm5hfCLauryHEK9eZseht3U2jQtKQzuJoHJ2XsNTE5U1uoZbgNQQVACsBXNVNWpZPD7/k1FQMtnu2ml76rxbdEq06VuIfyimoDwcOpX6fZhmHpvSkvya99jYKLo62FlrdQbjtPDbdN7BqCCoARgSyqH3wx+p/uNGwkV36qbGnXrVpkuddD5ZrrgHRMQHlo9NW8f0njYS923BiaTWXLOUlv3kr3KIiAZF0NtvF0AViIoAT6krHu9/WChcvjNIP3eNCmp+Fb9PUyNupNj8ib1dPW9cgBO6vw0AGd3BIRHo95MVxGYtLI3jcdJd+eNae+S+M2pOb5rVYmsm77/EpAArEtQAhy5YorE8WS6sG0uu5n6dHfDb6q+Vd9vTnJKx+SNmteVvUrS3Q+9SnblAwSEJ6feTLcPb+9hMuldcnaz47DkA12rlhkUhXXPUttFCmAtghKALdrN8Bvfqh9OPV396lbM/jFInW+7bvB9RKN08+OYAkKemethsnFgkjfidx+WnK6s1UqtZUuWrTEr0SDddaa9eABYjaAEYJsqeyBsMPzGt+qHVb9K1SNwOskInC0b3affZVOdCgiPw2NgMp4WfV07MinCEg34BbJ0eX2bbm+XLA8P6WHSwyXf793VpnIuevGc6VkCsBJBCcBW1dPFZflH1nWH3xzXsJuPqXld1aukGIHjm/FtGt3/Tstzkix1r534x2Va9PUhApO15A14Wcmm8v1+dTvZ76v07Bl0GvY1wAoEJQBbVr+4LG9UrzX8xrCbo1C/Sr+qp8BJ33xbuyWjdF/WnSS7TBeKUx6pp1ly1slLBI1vVZ/07BlWFlUqcql2/i8LAGUEJQDbVr9I5Z1K1hh+Y9jN0ahffa+Y1ajISn5qgGxDxbCb7PIibxZy1CZFX9foXWL42lbUrx7yfR4/LHWXznUrASglKAHYuu0NvykddpN1k9EH+9RM19VT4KQfepW8Wf9np3TYzaXuJCdi2rtklV4OBb1KtqN5OzRbF8AbCUoAdmA7w2/Kh934Vn3/6le/KhsgepW8VcVwM8NuTs5qvRxyG80KxmsrztalCw/AUoISgF3YxvCb0mE3vlU/jLwBUjkFjl4lb1Ix3ExAeJpW6uWQXxf/G8ZN3maV2br0KgFYSlACsBNvH35TPuzGt+oHUzkFdH5s9SrZWNUsT9+vjuHE/5v+HaCBOfr3N24tln1uxK1jtErImO/ZQ+zYd6p6tq4NpqsH+CAEJQA7Uln8s7SbuWE3x2uVbu2KJW7mWGZ5aqTPpQdYz4eNNL9WF0S2Y7dnhV4lQl2AxQQlADvTTF/Lk5Ll3+YZdnPcdGvfidHNj9JhN8c0y9Mhej4M/yuZCij35dOxXxeqAii2rVn+j1DuLv2RlAC8IigB2KGqD6nLht8YdnP8VunWrljiOkbpvmxO4NRK+8tJ6unTl7i5xP57PlT0tsnPxqMeecNhrDBU0GxDAK8JSgB2qaqr+cLhN4bdnIT6VfpV3QLRq2RVo/tUnpPsa9jNVKOq68Pdn/0OWRj9S+UVSr6ko+9QwgFU18sy2xDAa4ISgJ3aYPiNYTcno7IOjV4lKxvd/8731jJZ6l7vd9hN5RTfex6yUL5/cnsOknbluAvSnqbqc9l1CuAlQQnAjq07/KZ02E3rezqKST8IzXStV8kWVAy7OcRws/qnVDH6Jt3tLSnpp5+d0pjkqOq3LDdMFWVWTqDOyglaqabSnntIARw5QQnArlUOv+mkpy/zyofdnEZj6GOpX/2qqAHg29pK/Z+pLAc4zHCzqt5guT2FYFVFbvMrwx7rt7xBaW+5gjoru7JKUdcfEl2AGUEJwM5VN7hm30yXNiROpDH04dTTVdXXtXmD+kd5gYkPrbQX1QGHm1U3Lgep823XhTCre5OcxrCbUbr5UR6TKFS9Q6tMzbykuDjARyQoAdiDygZXdHsuH3bzPmoQvEuVM0sM0qCirftxVczmcsjG8wozhhQ9wr7t7Jv4Ubo5O6/shbFx/ZbRTTqr1VLtrJ1u+jtuIlf0GiooVL1LKwwTVNQVYEZQArAPlQ2uojCkYTenq56uflVNF8xCFcMxWt+vDth4XqG3UG7QaaSzrYclo9RvNyrDhbfULZoViB3cpc55vg3tm7STvKQIZM7L455D9hz6KBR1BVidoARgL6qnaLw7L/vm2LCbo7dKwUReKR92cwTn/Sq9SnKTsKTd387QhVE/3Zw1UmW28JbeJLnhi8qqg7tOOm+cbW87CkVI0uhMA5kyClXvXv0iVc0UrKgrwJSgBGBPqr/NK2HYzUloXutVsp6KYTdHcd6v3ltocHeeGmdnqb1xt4xR6t+001njvLonSS7r/tpBuDCYbket9sYeJsW2nKXaKiFJaqXerSvc7q3SQ0pRV4BCLV/G05tPxuNXvzoatfwf7peOeX2BKv3UrlWMwc+yHTc+v6TvD7d7aJAV9QZW6Eq/QKs3TvtrR5zyMalY91YvjXe8I0d547Cx7kHOumn4sL8hJv12rbS3QtYdpoc9fL1fta/2e96XW/+45u+R1mX6fn2RmvWyfTlKo/4w3f/5kTp3azz/Fs7lqvPgSZZa3cv09eIiNfJtKd2aUT/d/1xvWzY/zu/4WpWvdXf4sIMgbJV9tt/rEfAxHWu7fn69irV5thyzU1tfoEpv3Frwvt77kn9S34dhN1v8+qVLK99L+3TKx6Ri3fdynDfYf1l3PIxH70OvtWAd5pasu4+1GY672eLXny77Pu+r9VqbvH+flizL5pbF91lp2dL5stn1KJZn27L587ztXHvH16qUjXf1Nqx6/xfLnv5JBD6wRdeeY/C4LobeABT+/tvemPwSmwy/ybrXH3PYzZ6OyfatMLsEKY3u0++STgfHeN43bx9Sr7X5sR0MitmPHpf45bq2+G3/m4YDPtuWzTYma/X20nNp507sWrXKEMHZlPUAH5SgBGCfVimm94yZIE5R/erXSgVAP7LZjCsLHe95X4Qlw25r84DhDYpgYatDIupX6deBTtTJ8K5jGVf10SjqClBJUAIcWCN9/lANyurZb57JLtP+24sf7ZjsgumCy43SfWl3kkOc96urX92mh2EvvaFzyXqyVur2psHCtndL/eohjfe9LcPxlnqSuFZtZpV/h4op6+MmwAckKAEOrJ4+fYmbh/Tl09YbIMvUr76nVtyukl1e7G29nny8Y7IT9av00Fut50Hr+wcrnNj/WVrU+DDn/ZrqzXT7ME7D4hjvrLGepVZvmMYPt+mqucM9MtuW7g4Dk+m2DItt2dqmuFZtapV/h/7+M/sN8LE9K6BSLMfs1NYXWMXwzUUS37bsrmjeUsPuuFUUQVy4PvmS/63V7e21wOdzp3tM8obrwuKSWdYa9w6xQ4e9cTffl4uPdX6cD7FS+TotPP+K37V2X1i2vJjkAd6PWzCM47x4m9ZbimPQGx5wJ+Sv3esW76PF67fOUrzvujs9x9/jtaq4/u/h+Me/Qy9fv9img10vgQ/j9bXnuIq5mh4YANijiulJ38PUpKNR6g/v058//6W/f//mv1hSvDWmrv3y5Uv6/PVrumg0U+lMwgdSTPk7vP+T/vz3N9+eaVHa1/JtmW5M+vL5a/p60aiYFhmAj+zYpwcWlAAA+9Nvp9r50pikmGk1qfEJAO/bsQclapQAAHvT/7M8JEmplb4KSQCAAxOUAAD7MbpJP0pzkq9JTgIAHJqgBADYi9H971Qy2U1q6U4CABwBQQkAsAejdP+7NCYx7AYAOAqCEgBg90b3qSwnybrXht0AAEdBUAIA7Fz5sJssXV6YShYAOA6CEgBgx/rpZ6esO8llkpMAAMdCUAIA7Fb/Tyqb7Ca7vEhyEgDgWAhKAICd6v8pjUkMuwEAjoqgBADYoVH69zduLtL6nq7kJADAERGUAAA7VE9Xv7qplWXx86MsZa1uGt6a6wYAOC61fBlPbz4Zj1/96mjUasUqP3fM6wsAAAA8OdZ2/eN66VECAAAAEAQlAAAAAEFQAgAAABAEJQAAAABBUAIAAAAQBCUAAAAAQVACAAAAEAQlAAAAAEFQAgAAABAEJQAAAABBUAIAAAAQBCUAAAAAQVACAAAAEAQlAAAAAEFQAgAAABAEJQAAAABBUAIAAAAQBCUAAAAAQVACAAAAEAQlAAAAAEFQAgAAABAEJQAAAABBUAIAAAAQBCUAAAAAQVACAAAAEAQlAAAAAEFQAgAAABAEJQAAAABBUAIAAAAQBCUAAAAAQVACAAAAEAQlAAAAAEFQAgAAABAEJQAAAABBUAIAAAAQBCUAAAAAQVACAAAAEAQlAAAAAEFQAgAAABAEJQAAAABBUAIAAAAQBCUAAAAAQVACAAAAEAQlAAAAAEFQAgAAABAEJQAAAABBUAIAAAAQBCUAAAAAQVACAAAAEAQlAAAAAEFQAgAAABAEJQAAAABBUAIAAAAQBCUAAAAAQVACAAAAEAQlAAAAAEFQAgAAABAEJQAAAABBUAIAAAAQBCUAAAAAQVACAAAAEAQlAAAAAEFQAgAAABAEJQAAAABBUAIAAAAQBCUAAAAAQVACAAAAEAQlAAAAAEFQAgAAABAEJQAAAABBUAIAAAAQBCUAAAAAQVACAAAAEAQlAAAAAEFQAgAAABAEJQAAAABBUAIAAAAQBCUAAAAAQVACAAAAEAQlAAAAAEFQAgAAABAEJQAAAABBUAIAAAAQBCUAAAAAQVACAAAAEAQlAAAAAEFQAgAAABAEJQAAAABBUAIAAAAQBCUAAAAAQVACAAAAEAQlAAAAAEFQAgAAABAEJQAAAABBUAIAAAAQBCUAAAAAQVACAAAAEAQlAAAAAEFQAgAAABAEJQAAAABBUAIAAAAQBCUAAAAAQVACAAAAEAQlAAAAAEFQAgAAABAEJQAAAABBUAIAAAAQBCUAAAAAQVACAAAAEAQlAAAAAEFQAgAAABAEJQAAAABBUAIAAAAQBCUAAAAAQVACAAAAEAQlAAAAAEFQAgAAABAEJQAAAABBUAIAAAAQBCUAAAAAQVACAAAAEAQlAAAAAEFQAgAAABAEJQAAAABBUAIAAAAQBCUAAAAAQVACAAAAEAQlAAAAAEFQAgAAABAEJQAAAABBUAIAAAAQBCUAAAAAQVACAAAAEAQlAAAAAEFQAgAAABAEJQAAAABBUAIAAAAQBCUAAAAAQVACAAAAEAQlAAAAAEFQAgAAABAEJQAAAABBUAIAAAAQBCUAAAAAQVACAAAAEAQlAAAAAEFQAgAAABAEJQAAAABBUAIAAAAQBCUAAAAAQVACAAAAEAQlAAAAAEFQAgAAABAEJQAAAABBUAIAAAAQBCUAAAAAQVACAAAAEAQlAAAAAEFQAgAAABAEJQAAAABBUAIAAAAQBCUAAAAAQVACAAAAEAQlAAAAAEFQAgAAABAEJQAAAABBUAIAAAAQBCUAAAAAQVACAAAAEAQlAAAAAEFQAgAAABAEJQAAAABBUAIAAAAQBCUAAAAAQVACAAAAEAQlAAAAAEFQAgAAABBq+TKe3nwyHr/61dGo1YpVBgAAAN6LY8ghHvMGPUoAAAAAgqAEAAAAIAhKAAAAAIKgBAAAACCcXDFXAAAAgG1TzBUAAADgBUEJAAAAQBCUAAAAAARBCQAAAEAQlAAAAAAEQQkAAABAEJQAAAAABEEJAAAAQBCUAAAAAARBCQAAAEAQlAAAAAAEQQkAAABAEJQAAAAABEEJAAAAQBCUAAAAAARBCQAAAEAQlAAAAAAEQQkAAABAEJQAAAAABEEJAAAAQBCUAAAAAARBCQAAAEAQlAAAAAAEQQkAAABAEJQAAAAAhFq+jKc3AQAAAD42PUoAAAAAgqAEAAAAIAhKAAAAACZS+j822Z4c3Zh1nwAAAABJRU5ErkJggg==;" vertex="1" parent="1">
          <mxGeometry x="159.1" y="1350" width="593.03" height="330" as="geometry" />
        </mxCell>
        <mxCell id="KiHBWz9iV-Te058j2_ag-23" value="" style="shape=image;verticalLabelPosition=bottom;labelBackgroundColor=default;verticalAlign=top;aspect=fixed;imageAspect=0;image=data:image/png,iVBORw0KGgoAAAANSUhEUgAABE4AAAJmCAYAAABCE8XtAAAAAXNSR0IArs4c6QAAAARnQU1BAACxjwv8YQUAAAAJcEhZcwAADsMAAA7DAcdvqGQAADrVSURBVHhe7d29ltJcGwbgh+9YwMLlEcARDDZWtnZQDo2dpZ0NlENna2UjHAEcgesthHOZLyEJBCabgZnR+buutbLeAPnZAV8kt3s/u3WdCQAAAABu2AQnrVarfAgAAABA5X/lfwEAAAA4IDgBAAAASBCcAAAAACQITgAAAAASksVhTbYDAAAAvCZN+YgeJwAAAAAJghMAAACABMEJAAAAQILgBAAAACDhrOKwTdtxPoV3AQAA4OlRHBYAAADgDIITAAAAgATBCQAAAECC4AQAAAAg4d7FYRU6Pc57BgAAAM+D4rAAAAAAZxCcAAAAACQITgAAAAASBCcAAAAACYITAHhw65j0WpviYr3JunwOAIDnSHACAAAAkCA4AXgF1vPhpvdDsfRieGYviPWkt7f/0+1EsY7JsBe93vnXCAAATQQnAK/Bn9/lSm4Z09G3mJePbjePb6NluZ5bxn+rcvWpWf+KH9NlLJfZNf74FaITAADuS3AC8Jp0u9HdrEzj64k9MtaTr9nWmcEgBptnHti2N8zwjDAnof0mPhYXGN2Pb6JdrAIAwJ0JTgBelY/xZVwkC8uTemTsepsMPnzY/Pdpu4jLxXVcX1/H4vKifA4AAO5OcLJlBgTgdei8/1j0OlmO4tttXTzmP4veJt1xfJZDAADwCglOAF6b9vvtcJbpz2PJyTomXzexSXQ/vj9h2Ms65pNJDHv1QrLZkj3uDec3erdsC872i3Pkw4f6e/tNavvswu3sUNnDeXae3ba7wPuUEHy9KZbbq+2ft3E4v9HC2491z2FG6/nN96vXG8bkRlsAAHgs/yQ42Z/N4WCpflD7jQjwj7Tj8ktZrWT6NT1DTl5odTNKZxBfLm+LTeYxbHWiPxrFdJnv1I1uVU8le7yc9qPTOwgX3rzbbVPJH1fLu0SNkj+T6HX62XnKx5nlydVq88ClE53+NG/WTl5Mtt+J1iaV+ReKUKbT33+/csvlNEZZW/R+BAB4Gv5Nj5O92RwOVD+oO095ekuAF+biQ1nodRk/fjV/+c6/jbJXM4MPcdoonW4MxrNYXec1RhaxWGRLvr4alwHKfkHa9sVVsc2sKjk7iFn+uFqums86HeXtys41W21qmVxfr2J14jii+bAKXOr7522cxSBv5LEg6QHNh50oSsd0Y7zavV95W1bl+7EcdYreNQAAPKp/O1SnOy5/UO+W/Adi+W9sMfpU75YNwN9zEZ+PFomdx8+iuEmMTwolLuIqu/m/ury42UukfRlVB5fTe4YcN5hl57qoztSO9u3jiCLWkyhHHh3sn2ln7V+sonxL/q5tO/LQZBGHnXnyQKnKko4PpQIA4F949Bon+Q/E79Uv1eWPSPzDJwAPrH2kSOx2CuLux3h/Sihxi87b8nv+9597B+Td8SoSnVGOWv/6UfSgiUF8aNy/HZeLm0HGQ9u248h7e/Fhm5zcqXYKAAAP50kUh93+eM9+Sj7QP0YCcJtkkdjaFMRfLpvrjCTlhVcnMRzmxVd72+VTebzHtPqvbEP3bXSKtUexbcdyFJ9q79Hesi2YCwDAY3sSwcntzpupYd+psycck51/WJ17GCY7AF6GRJHYagriZM+MZpvv2lZeeHUU02lefHW5W8ptnoRU0dlHsPce1Zfy9TzkAQDgcT2J4OR49+k7zNSw9TCzJ+RF/PqbaoJ5McGrqA+LB3jWbhSJXe+mIB5/PrEobGY+LL5rs9XuYByrTcHTWj2rf1I85EQPMFzoQTTU/bqxLC5P/wwAAPgrHj84WU+2XbjTP9LPm6mh8hCzJ+Q9TYoe0/kx8mKCm6cBXohakdjRt5hvpyDuxsczipvMi0qy+Rd5fL+6PK1Y6z+2rbOy/C8ec1ToU2kHAACn+bfByeF47nzoS6eY7jIv9rdorMh3x5kaHmD2hPUkD002rdvMfCA0AV6iXZ2pafTL7+QYfLlbkdTEMJhtXY+jfsefv9gVpP3mXbk2jebJaophmU2dEZtnHtr1zjlH/f02aQ4AwNP3z3ucNI7hzixHnRPqldyUmqnhvrMn5KFJZ9MTpnm6SIAXo1YktjI4p7hJZvtdfKMn3zom2557CZ23ZZBQDRfKrWO9PvdvhFtcfN4G5tP+Qa2rdTG0swjLK+14X70xefA/2f0dtSmAm21/p5q3tdA/b8ekqXBWdu1FiPPA7wEAAGf7t8FJ03ju1SpmVTfxvF5Jsu7IeTM13Gf2hDzEKUKToreK0AR42WpFYnPZd/XnM3vYtS+/bGuljDpFEe6iKHcnRtPlpjZVUi24yb9/i0Lc2ffwp6ZeHveRXef3cohn1s5NrauqaHinGNrZHcz2rr19+X0btixH2d9R5fabArjLfAjnuLzu81xclUNG8/erbEf191rRniLE+f1nszkAAI/o8WuctNtxcbnYFQ6c9m90k77XTA13mD2hO979EJ5+nTzwD3eAJygvElt+DXc/vj/7e7MYVrmKWXaQIg/Iv6OzY3UHMZ6tYvGlGibTJO8BuIpx1YCNbgzu1I5btC9jUW9npWrn1eGw0KJth9vnBXBnmyGcb8pnzlUMGV3lwUsZKlV/r2VvWnn81BBWAAD+pdZ1Jv/XrUN5b5BDp253aDvsJe9xsrhs/iG8nkSvqd7JfBitso93/kPy++f9ooOpY8+HraJr+LFz7lnHpOx2vTn/+1/b9sRgFtd3LHBy1/cMAAAA+Lea7uEfv8dJpf0mmv498q4zNdx71oL8XyVn20Ho0btt+h0AAADgxXk6wcn8Z1S1A9+9aUhHzpyp4T6zJ2xdXG2HEOXj7o9uCwAAALw4TyA4Wcd6MoxeNeXCQVHCO8/UcPbsCc3qhQE3sx/oeAIAAACvxr8NTpaj7YwEuyWfwWZa1BLpDmL2fb8eyd1najh/9oRmeWHAWa0Nw9DxBAAAAF6HfxOcbIfNNKtmXVgtruLixnice8zUcPbsCSlZG1ZVCDONr7qdAAAAwKvwT2bVec28ZwAAAPA8NN3DP53isAAAAABPjOAEAAAAIEFwAgAAAJAgOAEAAABIEJwAAAAAJAhOAAAAABIEJwAAAAAJretM0zzF2dPl2s6p27HjPQNO0fRdAQB1fkMC/H1Nv8v1OAEAAABIEJwAAAAAJAhOAAAAABIEJwAAAAAJisP+Zd4z4BS+KwCo8/cCwONo+v69d3DC+fylBxzyAxmAOn8vADyOpu9fQ3UAAAAAEgQnAAAAAAmCEwAAAIAEwQkAAABAwlnFYQH4O3wPA1Dn7wWAx6E4LAAAAMAZBCcAAAAACYITAAAAgATBCQAAAECC4AQAAAAgQXACAAAAkCA4AQAAAEgQnAAAAAAkCE4AAAAAEgQnAAAAAAmCEwAAAIAEwQkAAABAguAEAAAAIEFwAgAAAJAgOAEAAABIEJwAAAAAJAhOAAAAABIEJwAAAAAJghMAAACABMEJAAAAQILgBAAAACBBcAIAAACQIDgBAAAASBCcAAAAACQITgAAAAASBCcAAAAACYITAAAAgATBCQAAAECC4AQAAAAgQXACAAAAkCA4AQAAAEgQnAAAAAAkCE4AAAAAEgQnAAAAAAmCEwAAAIAEwQkAAABAguAEAAAAIEFwAgAAAJDQus60Wq3y4U72dLkGwN/W9D0MAHV+nwP8fU2/y/U4AQAAAEgQnAAAAAAkCE4AAAAAEgQnAAAAAAmKwwIAAABkFIcFAAAAOIPgBAAAACBBcAIAAACQIDgBAAAASBCcAAAAACQITgAAAAASBCcAAAAACYITAAAAgATBCQAAAECC4AQAAAAgQXACAAAAkCA4AQAAAEgQnAC8Euv5MFqtVrH0hjEvn282j2G57fD4hgAA8KIJTgBeiz+/y5XMchp9iQgAANxKcALwWk2/xmRdrgMAAI0EJwCvzWAc426+sozRp0nITgAAIE1wAvDqvInLL4NidTmKb0bsAABAkuAE4DW6+Fz2OomY9m8rFJu2nk9i2Ovtis5uCs/2ojecx7qxK8s6Jr160dl1zIfZ9tv9y3032xbyora9cp986eWFbXWTAQDgHxGcALxK7bj8Po4iO5nG17OLnaxjMuxFpz+K6XJZPlfKHi+n/eh0esdn5PkziV6rE/1ptn35VD58aLNvbxLrdRGydPrT/JBby7ywbXZs9VkAAPgXBCcAr83vP0WPjvZl7EbsfDur18l82InRtEgzuoNZrK6v47pcVrMqkFke7c0yHY2yLboxmK3KfVcxq7rBLEfR6WTnyE5RP/5qNtgee2SMEQAA/4DgBOAVu/i863Vy8vTE60l8nRar3fEqFlcX0S4ebrQvLmOxOqU3SzfGq0VcXVR7t+Pi8vt2CFHu8Pjti6v4vh1j9PPOQ4wAAOBUghOA16x9WQsiTpueeP3rRzm0ZhBfLuuRSU29N8uPX3s1Syrd8fe4uXs73rwrV7vj+N5w/PZ2AwAA+PsEJwCvXPvySxQZx2nTE6/+KwuOdN9Gp1hr1HlbBjLL/2JVrJ1kux8AADwBghOAV+8irmZ3mJ743Zu9IToAAPASCU4A2J+e+OvtvU42qiKzAADwgglOAMi043I3xc7RXienDsE5dUgPAAA8ZYITAAoXV1GN2Jl+/Rq/i9UbdsVZj8yYU5955+N7Q3oAAHi2BCcAbG2nJ14uy5lzGtSG9SxHnehN5ntDdtbzYfQ6o2L/xMw4AADwXAhOANipT0+c1I7LxSwG2/CkH51WK1rl0ulPy9BkELPFpd4mAAA8a4ITAPa0L79ve5REdONtY4GSi7harGI1G0S3ux+05I8Hs+y1xVW2FQAAPG+t60z+L4SHsqfLNQAAAICXrykf0eMEAAAAIEFwAgAAAJAgOAEAAABIEJwAAAAAJAhOAAAAABIEJwAAAAAJghMAAACABMEJAAAAQILgBAAAACBBcAIAAACQIDgBAAAASBCcAAAAACQITgAAAAASWteZVqtVPtzJni7XAPjXmr6XAeCQ3+wAD6vpd7geJwAAAAAJghMAAACABMEJAAAAQILgBAAAACBBcViAJ8j3MgCH/N0A8PcpDgsAAABwBsEJAAAAQILgBAAAACBBcAIAAACQIDgBAAAASBCcAAAAACQITgAAAAASBCcAAAAACYITAAAAgATBCQAAAECC4AQAAAAgQXACAAAAkCA4AQAAAEgQnAAAAAAkCE4AAAAAEgQnAAAAAAmCEwAAAIAEwQkAAABAguAEAAAAIEFwAgAAAJAgOAEAAABIEJwAAAAAJAhOAAAAABIEJwAAAAAJghMAAACABMEJAAAAQILgBAAAACBBcAIAAACQIDgBAAAASBCcAAAAACQITgAAAAASBCcAAAAACYITAAAAgATBCQAAAECC4AQAAAAgQXACAAAAkCA4AQAAAEgQnAAAAAAkCE4AAAAAEgQnAAAAAAmCEwAAAIAEwQkAAABAguAEAAAAIEFwAgAAAJAgOAEAAABIaF1nWq1W+XAne7pcA+Bfa/peBoBDfrMDPKym3+F6nAAAAAAkCE4AAAAAEgQnAAAAAAmCEwAAAIAExWEBAAAAMorDAgAAAJxBcAIAAACQIDgBAAAASBCcAAAAACQITgAAAAASBCcAAAAACYITAAAAgATBCQAAAECC4AQAAAAgQXACAAAAkCA4AQAAAEgQnAAAAAAkCE4AAAAAEgQnAAAAAAmCEwAAAIAEwQkAAABAguAEAAAAIEFwAgAAAJAgOAEAAABIEJwAcMN6PoxWq9W49Hq9GE7msS63BQCAl0xwAsBNf36XKzctl8uYjvrRafViIj0BAOCFE5wAkNYdx+r6Oq63yypWs0F0Ny8uY9QZxnyzDgAAL5PgBIAztKN9cRWL2aB8PI2vup0AAPCCCU4AON/Fh6iik+V/q3INAABeHsEJAHfQibfFeJ0D65j0iiKyw3wMz3oew/LxprBsQ++U9XySbdPbbrPZrjeMybypJ8vB8bPH82EvevV9h5No3LWm6Zyt7HEvO+i6cd/bzlvuu9m2kBfY7dWvPbum29oFAMDTIzgB4A5W8d+yWOu+7RQrh/5Motfpx7TcLrffO6UIIzr9UbZNvlE3ut2yespyGqN+pzFo2cqP3+pEPztB7RSxnI6i30kVrs3OOezVzlmTPV5O+9HJ9i3CkYTG85b79iaxXlfXNc0PuZVfU7pdAAA8VYITAM62nnyNabn+7k27XNs3HY1iGd0YzFa7wrKfL8pXI+bDTow2wUI3xqv89UUsFovNtnkB2txy1EmGGNvjj2fbArZ7hWu/3dxxc84yyekOdvsV+463+0776aK3Tdc1G5fdb5aj6HSK66of/7Z2AQDwdAlOADhDMUSlUyQeEYNZXO2ykBsGs0X2ehWstKNdra4n8XWTvOShySIuD7KXvABtVX92+jMVNBT7Xl1eZEcu5Pt9r0KM6c/98GN7zmzP8SoWWcPrp21fXMZiVYUnx4reluetXdfF5feoTps7PP7RdgEA8KQJTgBIy3tQbOt45EsxRGUjn6r4SGqShwepl9e/fkTR2eRjvD8ITSoXH7bJSWPQ0B1/vxG45Npv3pVrv+NPLfvYnjMG8aVpx1z7Mr6Up13++LVXs6TSfN52bE+bvS/fG46/axcAAM+J4ASAM+R1SAYxzoepLC73emycY1UVSFmO4lNelLVp6VeDgc7UeVv2Gtm3PWf3bSSqsmx0qqq3y//inPmCtvsBAPCiCE4ASMt7lZR1Ooolr0NyFZfbYSr3t8yLsjYt5et50PGg3r25c+ADAMDrIzgB4PHcCGYalsVlHCmjcr7ffxqH4AAAQBPBCQD/3F2Hw9zHqec8dUgPAACvg+AEgH+u/f7jdvaa5KQ5D2xXnPXIjDn1mXc+vjekBwAAwQkAj6A2e82034vJvCHIWBdTHw+bXruLi8/bKYOXo070JvO9ITvr+TB6nVE520/zzDgAALw+ghMAHsXF1SwGmyBjGaN+ZzPdcTWjzmbq404x9fHvP5vNH0A7LhfVOfPwpL831XKnPy1Dk0HM7jFjEAAAL4vgBIBHchFXi1WsZuMYdIs0o5pRJ7LH3cE4ZqtVLB6050d1zkF2ijJBKeWPB7PstcXVwxajBQDgWWtdZ/J/aTuUz2QAAAAA8Fo05SN6nAAAAAAkCE4AAAAAEgQnAAAAAAmCEwAAAIAEwQkAAABAguAEAAAAIEFwAgAAAJAgOAEAAABIEJwAAAAAJAhOAAAAABIEJwAAAAAJghMAAACABMEJAAAAQELrOtNqtcqHO9nT5RoAj6npOxqA18vvdIC/p+m3tx4nAAAAAAmCEwAAAIAEwQkAAABAguAEAAAAIEFxWIAnznc0wOvl7wCAf0txWAAAAIAzCE4AAAAAEgQnAAAAAAmCEwAAAIAEwQkAAABAguAEAAAAIEFwAgAAAJAgOAEAAABIEJwAAAAAJAhOAAAAABIEJwAAAAAJghMAAACABMEJAAAAQILgBAAAACBBcAIAAACQIDgBAAAASBCcAAAAACQITgAAAAASBCcAAAAACYITAAAAgATBCQAAAECC4AQAAAAgQXACAAAAkCA4AQAAAEgQnAAAAAAkCE4AAAAAEgQnAAAAAAmCEwAAAIAEwQkAAABAguAEAAAAIEFwAgAAAJAgOAEAAABIEJwAAAAAJAhOAAAAABIEJwAAAAAJghMAAACABMEJAAAAQILgBAAAACBBcAIAAACQIDgBAAAASBCcAAAAACQITgAAAAASBCcAAAAACYITAAAAgATBCQAAAECC4AQAAAAgQXACAAAAkCA4AQAAAEgQnAAAAAAkCE4AAAAAEgQnAAAAAAmCEwAAAIAEwQkAAABAguAEAAAAIEFwAgAAAJAgOAEAAABIEJwAAAAAJAhOAAAAABJa15lWq1U+3MmeLtcAeExN39EAvF5+pwP8PU2/vfU4AQAAAEgQnAAAAAAkCE4AAAAAEgQnAAAAAAmKwwIAAABkFIcFAAAAOIPgBAAAACBBcAIAAACQIDgBAAAASBCcAAAAACQITgDgJZgPN1XgW61hzMunAAC4P8EJAAAAQILgBIBbrbe9GW4uvV4vhpN5rMttAQDgJRGcAHC7P7/LlZuWy2VMR/3otHoxkZ4AAPDCCE4AOF13HKvr67jeLqtYzQbR3by4jFFHfQ0AAF4WwQkA99CO9sVVLGaD8vE0vup2AgDACyI4AeD+Lj5EFZ0s/1uVawAA8PwJTgB4AJ14W4zXabCO+WQSw15vv7Bs9rg3PFZUNt9vGL3e/j7DedMeJ2y7nkRv81qqFss6JuX+vVSvmVum/F3Pj1znLefMNskPkO2/2/dmO8rrrI6db9PL2pJoLgAA9yc4AeABrOK/ZbHWfdspVjbmMWx1oj8axXSZb9CNbjdb8peyx8tpPzr5jX/+eE8eKOT7TfPNst3y/bL/5oVo+52DQOHEbdtv4t1mZRk/fjUkDetf8aO8huWPX9lRb5r/nBYrgw9xUayVsjYMe9HpV9dZkz3eXGcnD3LK55r8mUSv08/2Lx9n9nvv5KFKeZ3lM7nlchr9Tit6X9MFfAEAuDvBCQD3tp58jTJSiHdv2uVapRuD8awsKruIxSJb8vXVuAxQGuqizL/FaJMODGK2yrbN91kUxWhng4OuLSdvexEfyvFETcHI+tePXSCx/BE3s5V57HKT/dhkPuzEqEw8uoPqWotlNSuvMzv6tJ8unjsdjbItsvdqtir3XcXq8+4882EVqtS3KY6fX2Y+uxEAAA9PcALAPayzG/pedIrkIrI7+rjayxQu4up6EVeXF3EYp0T7Mr5UQcZBXZR1Nf1x3rNjb8d2XFwtYnG5e/KcbS92yclBMLKOX1V3k42GXinzn2U4NIi93GQ9ia9loNIdr2KRvQH1ZrQvLmNRhUS3FM8dzLL3ansR7WhXq3vn+F7bpjj+1WIV44M8CQCAhyE4AeB0y1F0avU1WvkwnGpsST5V8X5qcqtOVRjl95+9HiDtN8Wgmph+jcktBTzO2XZXxPYwGKmGGnVjUPZSOeyVkhqms+upMogvtZBmTz0kSgwDykOX1Nt3+znacVmdAACAByU4AeAe8noigxjnQ0cWl3s9Lfati8Kpw7yAa2+7fKp6qhy6+Fz2oFjGqN+JVm+YDkXO2TY1XKfqTdL9GJ8/lEHMXq+U9DCd1a64S9SruxzahkTL/+LceYdOPQcAAA9PcALA6fJeJWVtjWLJ64lcxeX+GJk963k+C0ynKJw6zQu4LndLuc1N7bhcrGI2HhRDXJbTIhRp9WI4OZyJ55xtm4frVL1Juh/fR7upV0pqmE7duzdHgiMAAJ4rwQkAf898GJ1+MQtMdzCOVV68tRa8rI4W5mjHxeXVppBsVQA1DzOmo350bkxPc8a2N4KRqjdJNz6+z6OPm71S0rPp1BwMNwIA4GUQnADw12wDh+44vl9d7oqdnqkogFoLWvJ6JomU4vZtD4KRbW+Sd1FNCLTfKyU9TCd36hCc+wy3uc8wHwAA7kdwAsDflxjGsg0TTtR+/7EYjnOCY9vWg5FvP2uz8hRr+71SvlXBSjfeNiQe2+K0x2bMqc+Kkw8HKlZPVj/Hz8b5jOcxrE4AAMCDEpwA8Ndse0rc6PWxjsmwF/3Ge/3stV5TfZJ1zLezy1S9Q87ZtqYWjEzLWYH2e5PUeqVMt4lHbEbyHNoWp822HXWid9CWTY2XzqhoS97zJjXzzjG1c0z72fXWit/mRXd7rX5UkxsBAPCwBCcA/DXtyy/bgGLUaUVrM5tOMY3xKLvT73ZTfULK+iT5lMflDDybqY/LWXgGs6tarZFztq3sgpHCzaKv214ppXRPkbw47aysq5KHJ2VbyqWq8RLdQcyOzjx0THaO7+OyB012vZvit9Xx81Cmm13nuHyvAQB4SIITAP6ii7i6XsVs0C1u+jez6cR2CuPFl2oISl1tlpx8p3IGnmyvTYHZ2eo6rrYhxznb7tsLRgYfbtYd2fZKyQ3iS2N3k0p2nVk7VrO8HWWCUsofD7JrXS2aApwztC9jsZrFuEpoSsV1LrLrfFM+AwDAQ2pdZ/J/sTqUz3YAAAAA8Fo05SN6nAAAAAAkCE4AAAAAEgQnAAAAAAmCEwAAAIAEwQkAAABAguAEAAAAIMF0xABPTNN3MgCcyu94gLszHTEAAADAGQQnAAAAAAmCEwAAAIAEwQkAAABAguKwAE+M72QATuXvDICHpTgsAAAAwBkEJwAAAAAJghMAAACABMEJAAAAQILgBAAAACBBcAIAAACQIDgBAAAASBCcAAAAACQITgAAAAASBCcAAAAACYITAAAAgATBCQAAAECC4AQAAAAgQXACAAAAkCA4AQAAAEgQnAAAAAAkCE4AAAAAEgQnAAAAAAmCEwAAAIAEwQkAAABAguAEAAAAIEFwAgAAAJAgOAEAAABIEJwAAAAAJAhOAAAAABIEJwAAAAAJghMAAACABMEJAAAAQILgBAAAACBBcAIAAACQIDgBAAAASBCcAAAAACQITgAAAAASBCcAAAAACYITAAAAgATBCQAAAECC4AQAAAAgQXACAAAAkCA4AQAAAEgQnAAAAAAkCE4AAAAAEgQnAAAAAAmCEwAAAIAEwQkAAABAguAEAAAAIEFwAgAAAJAgOAEAAABIEJwAAAAAJAhOAAAAABIEJwAAAAAJghMAAACABMEJAAAAQILgBAAAACBBcAIAAACQIDgBAAAASBCcAAAAACQITgAAAAASBCcAAAAACYITAAAAgATBCQAAAECC4AQAAAAgQXACAAAAkCA4AQAAAEgQnAAAAAAkCE4AAAAAElrXmVarVT7cyZ4u1wD4l5q+kwHgVH7HA9xd029xPU4AAAAAEgQnAAAAAAmCEwAAAIAEwQkAAABAguAE4InJi/q9pGU17pZXdkw3BrPm/S2WB11W4+xPW6k7jtXe66uo/rh2x6va8xbL81oAeFiCEwD+jYab1NVsUN7ELmPaH8Z8sw5/UftNfKzCkY9vol2sAgAkCU4AeCTtaF9cxWI2KB9P4+tkXa7D33IRl4sivFtcXpTPAQCkCU4AeFwXH6KKTgAA4KkRnADwLKznkxj2etFqtbZLrzeMyfxYL5V1tt8w2263Tys7xvDIPk3nyffpDeexPthtPam2OzbMaB2T6vzZMQ6dd127Y20OtZ5n+9b2m2TX+wBtOuZe7c0ez4fZe7ndt3xfN9sWDj+v/Njpjys73uTI51VutW/Xpvz9AgC41XVRQerGAgAPYTXuFn+3dMfXq/K5PbPB9u+ewax8bs/qetyt/x3Vve52y2OWS3fcdOTZ9WBvv4Plxsmy8wz2j3tz6e63cTW+7pavNbc9k9zmLte122cw3h13u+QnuFebjvkL7a2W/M/G6vD49aV7ffMjzj7fg23y9uydozvItjq0O8+x9jb/mQIAXrrt74j6knoBAB5COjhZXc/Gg92NbuIOfjao/m66efO8OhK61PcbzGo7rqpAZf94u+2zm+bsYPVTrWb1m/76zXjtZj/R/u317+131+s6DBfq17a6Xm1Wa9skwqpUm475G+2dbduxW+rvfX7c9J+PPDjJjjfe/6w2asHQeeHIsdcAgNdg87vjcEm9AAAPYXeTnl4Og4qt7Q1wU4+DwvaGvn5jfWuPivwGuXbMozfapcQ2x0OIxI34Xa+rdrx8ab62zDbIaDr+HcKBB2nv8bak2nOXkCfX3J7cseu/w3sDALwoxe+O/UWNEwAeVXc8i8XVReO0sOtfP2KZr3Q/xvvEvLEXH8rSstOf25oe2/1iEB8aJ05px+ViEZflMevbf6mePNS+jC/lqZY/fm3rZ7Qvv5TFbRtmBVr/ih/FBcTH2gXc9brqshv7yN62ZtuCu8v48eu0Nh3zMO39vn2/d9rx5l252h3H94b3vr3d4Dydt91i5fefRK0TAIDTCE4A+DeyG+PVdTEN7PX1KmaD4sZ2Oeoni3Su/ivijGyj+JQX/Gxa+tNim5rtft230SnWjjp1++3N+PK/WBVrmYuoMoN6oJJLBQ53va7Tnd+mY/5me7fv6Z3lBYAnMRzmRWV37fk0KtsMAHBPghMAHkE7Lq4WsRpX4cmnuG2Ck+Vy2byUr+ehxw3v3jT2ZEk6d/vStrfF8kfsOnis41fRtSMGXy6Tx228pnwpX2+8rhNcfB7H5t3da9M8vpWBwrE2HdPY1nwpX79re+9iMwNPqxOd/iim02lzewAA7klwAsCj2Q1zWcbo25Fpcfd6qySWxWXcGLly7jCNuw7raBoaM/8WRUaRGi6Uuet1naL9Pj4WycnuvZ3/jKJfyJE2HfM323uu+TA6/ekmIOkOsnat9ttRhXIAAPclOAHgEV3E5+oGt6E2RvPQmNudu9+p26eH9OyuoxoaM/9ZDl0ZfLgRJNz1us7TjvdFcrJ9b4+16Zh/097zbK8lr41ydRntu3SfAQA4geAEgEfVfv+xGFLSUFy1/trPIx1SDu0Kiqb2W8d82Ith+Vp9+xsFXivrSXyt7tU/vr8xzGXb1s3QmHnsMoqbEcVdr+tc9cK1P+fH23TMv2rvnSSGV21DLgCAexKcAPC4tkNKdr01tmoz2Uz7vZjMG0KNdRWC1F67+BzbjizZfnuvrecx7HWiP63dWNe2X4460ZvM99qxqaXRGRV1M/IeDk0z79SHxnT6sckosm0/N2UUd72us+2KxE77t7TpmH/W3tNte8FMvx7Ux1nHJGvHvWrrAgDUCE4AeGTtuNzO8zuKw1InF1ezKCbgWcao34lWq7WdOSVfb3WKEOT3n83mpeyY38viqNl+03K/Yvt+5JlJdzCrBQj59MTVefJm9KNTbZ8tVS2NbKeYLVJFVWtDY0pNPVMqd7uu820L15aOtemYf9XeU+3Vx+lk59+0Jf+8OjHK2tHt7n8WAAB3JTgB4PHlxVXL+9zpjbEgF3G1WMVqNs62KTaqZk7J7o43hUFnq1UsDnuBtC9jUU57vHcL3R3EeJZtf3VxECBU5xncuOnOHw+yfVaLq6O1QXY387lufDw63+8dr+tctd40t7fpmH/U3pNl7al/vpu25E0pP98v1fArAID7aV1n8n8pOpRXpAcAnr/5sFUMXclnxUn2mAEAoCkf0eMEAF60WlHYL0ITAIBzCU4A4AVbT74WRWFjEGdOpgMAQEZwAgAv1jp+/diUtc3nID5anwUAgGZqnAA8c03f4QBQ57c9wGnUOAEAAAA4g+AEAAAAIEFwAgAAAJAgOAEAAABIUBwW4JnzHQ5Anb8XAO5OcVgAAACAMwhOAAAAABIEJwAAAAAJghMAAACABMEJAAAAQILgBAAAACBBcAIAAACQIDgBAAAASBCcAAAAACQITgAAAAASBCcAAAAACYITAAAAgATBCQDP13oSvVYrWq1hzMunKFXvTW8S6/IpAADOJzgB4Nla//oRy3xl8CEuNs+w1X4fH7vZf5ej+CZVAgC4M8EJAM/UPL6N8tikG+PPYpOb2nH5ZbBZm37V6wQA4K4EJwA8T/OfMc3/2/0Y79ubZzh08SE20cnyR/ySnAAA3IngBIBnaB2Tr5vYJLof34fcJOUiPhTJSfyQnAAA3IngBIBnaBX/bYqbdOOj7iZHdd7mhU7yTie//s5wnfU65pNhDHu9slBvfcme6w1jMpkbKgQAPFut60z+4+ZQ9nS5BsBT9iq/w+fDaPXzHieDmF1fKQx7TD67TmcUy7wWzGoRlw+VM63nMfzUj+kmwKp0o1vkNJllLA9eG4y/x9WDNQBI8dse4O6avkP1OAHg2Vn/+V2sdN9Gp1g7sI5Jr+j1MMxnlMlv8svH+dKb3Oz/sJ5PNr0mqm022+W9JebpvhJN+9xYEtMBn3y+vO3V6w3tzjbYXmtrc7EH2m/i3WZlGf+tNiv3tp5k7e6UoUl3EOPZKlbZTdn19SIWi2rJH2fLahbjwWZ6n5iOOs1tJC0PCTefvym3AeCxCE4AeGbW8etH2ZXh3Zvb65v8yXtc7PeMWO4lCEXw0OmPsm02SUB0y24Ty+U0Rv1Oc9Ay6d3YZ9vZorR57kYbzzxf+yI+j8vXR5/isCnryafYTC6U9765aup704lytE78/tMUvJxnc93lbEaD2SquF1dxedFOfw5Z+y+vFrGaFTP8xLSfCIAAAJ4mwQkAz1b3bXN/k7rpqBimsrnJ3/SKWMWqNn3xfNgpg4d8KMuu10S+bXWzvxx1ip4rlfUkPhU7lccte1nk+4zLgCAG8SV/7iDMuMv52pffo8hOljH6VOvBsteOq8SQpXa8KbqcHARGdzAfbkOTfNjP1cXpw27aF1fZe1MGQH+r3goAwF8gOAHgmakKw+YdTk67cR/M6jf57WhXq+tJFJPzNNf/yG/2tx0lfu6SjPWvH1FkH+P4fBAetC8/lyHHNGq7FO54vrzNl9/H2V6Z5Sg+lT025t/yUCizacfmqeN+/7lHYFGbyWj8fa/t6/mwVhi2F8NN+/KeNXlx2F3Q0778csL0yOvieLWhVa3sOMMzh0w9iWFWG9VQql7ZW6goplsvpNu072Y4VP76ppZPbhr92j77bavOcfrQtLTm9hXNq4aNpYYNnf/ZpZ1zrLzNDZ9n9riXvSF3OTsA7LnO/4kr+8/hAsDz8Oq+w1fj6255nYNZ+dwNq+txt9imO16Vz920GneL96w7zvZImA3K93VwXZ3u+H67cx+2767nq2z3j+71eFxtl62nL3HjpPPepmrXwTFmg7wN5dLtbj+bGAyK9b3t0+9NYXY9KF9vXG7stDtesWTnz9pQ36fp89+9j7t9tu0ul81zD3K+ap/sc5odv776vqvs/b7Rrvxxtey1rfa+jnf/f2yX5je7wbH2dbPPbHw92Kzf/LN5/md3zDnHyrbde718f+rPdZva+7Lt3o/dAsBpmr5DBScAz9yr+w5/wOCkftO/vSE9XMrX924W99qwf/y9cOPg1Hc+39bhjfvx66vcPzip3Zjv3bM2hTer7OldmLDfvuOfy+79yW/Sa6+vqhvp/fe0vv3h4fLgoWrDXpuPfnbp0Cp3p/Pd+MyyaxvPdp9Dfm211268LdvjHrv5bzjH9tpW16vDYyak3v9VHpjsHf9mW8797I4571j5+3fwnlZqn/Up/5+8JLvParcAcJqm71DBCcAz9+q+w/9ScHLr0h3v3Szu73sYetwWDJywHJyvst9b4tjN9M79g5Pq5r5+w3rsPd69lgoRbuxz6+ea71s7/3b79A359v2uHfD4e5Fqd+aO56sfM7nvsRv8OwQnze/fLY61YaN+joO2nPvZHfOQx8o0fyYvX/E57S8AnKbpO1SNEwCel+30ug8zS8xGd1xOp3tkWVzuiq/Oh7EpPdEdxGCQ3ebFMpbLbMmfKqfnXRwWMKk793xb8/hWFoMtTKN/wvS+q6oozF3Nf2ZnynQ/xvvqsta/opjcaBBfblxrVYemG6n6vYf1abZ1Y7LjfWis19KOy8WuLsyuzkytTQcuPmwqquQFY+49le9DnO+wNsxW+318zP8YZe5bwLc7XkXj5Eq3qL//Nz/PXPb+fymv78C5n90xD3msXGc3pZRaJwDcmeAEgFdre1O1/C+71T/d/GdRsHPw5SqurooZcaplUU7P2+Su56vMh/0iwBjM9qb3PSE7KZwyfXOD9Z/fxUp9/9V/ZZDwNm5kI+s/UezxLvbzkXSgsg13mo7XYLt9Xiw3LwLatGwLq+6033/cFtn9dqMgazW185H2nXm+0+xmPnqsG/xz3/+6++x76O7HyovJTmI4zAvK7j6TatYpALgPwQkAz0wndvnD/f51fnsT3TQDTtI6qhwhn/nmnJvcu52vVPVyyY4w/nyxPwNPPzXLSW7X3lOmbz5VY5hSSYUqVc+VG4FKzR3CnU1vn6alfD1vx1b7MqqOE9N+J/LZbjY32a1WOdVytnmqZ0ip8Vz5Ur6+d74TbUO15+yOwVyjM45VzOrUiU5/FNPptPkzAYB7EJwA8Mw84L/O791E95qnk12vYz6sT4PajvfVuIppPzr16U+rm/ByetkbR7vT+XLzGJa9Geo39RefyymK49iQnfOnbz5U9QI4LXjZTVt8ePNb9dSJwYeGYUilcz/TZzPM6rhtT4vn7CF7y5x6rOzz7GQf6ObzG2SfzWr/s1iNX0AgBcCjE5wA8Oxsa0nccchL3cXVLDb3z9mt12jTA6G17ea/CUM6nexGe5nfx221L7/HuGxCdruW3XCXS3UTvpxujtXpTW7c/N3lfNshOtlN+/f6TX37Mr5XN4apITvbYTPpeiO3qXpDNPbwqdfzWM9j2OuUw1325b0C6j1mDp07jOmuw54ea5jVcbteQQ/aa+MM97m+h3xvzj3WNozL/9+4uoz2Y7x5ALx4ghMAnp/O221Pi7OHvNxwEVeLVaxm4xh0i6NW3fwjD0MG45itDnohzL/FaNNrIe99sMhuuMul+lfu7FibI+X1MCY3opPzzlcPHL5nN4abJ3c2IU55rzn9ejOoOaWo6clqvQDqw476m/AnD336MV1m7ZzNYpMrTftlL5zWpldAfg2DWXNhz/a2G1HqM6164hSPntUwq9Jy9Clu/HHI5X+eyrBp0FwRNfM7HqoWcpPb3/95DKueRAfO/eyOufOxEoHTi+jJA8Djy37gNU63A8Dz8Dq/w3dTozZPnfo3NU3Ne9NTmQb1QdqRmhI3e767eb5Yutk5tm/Janw9qE2R2+1m+x79qOrT3XavB/WNV9l7Xr5Wv4ztteWfRdPBV6tsm/1j7U/nXF/KKaWzdubHamrqXc63f13FvoPsD061xWq2m373xvuba5wmONs/O9fO6f8/5O3bnCv/PMrnCun3f7+N+XL6vunP7vx2NB1r93ke/v+YHac6x+Y8d52K+3naXndtAeA0Td+hghOAZ+61fodvb5j+9Q3R9ka24SZ36/Qb2b/rtJDndtVx/vL11EKCpmUvmNnY3Uhvt9mEH7Ub5vy5vTbnN9TVa1VYki217TdL45+rO56v+rMw2A+a9pfUZ1QPEmrLXvtO/fNWP1bD+Y6+/9n240SAljvrs7tPOw6PtfuzuVk2n0dt2+qzEZyUrwBwm6bvUMEJwDP3er/DHyoUOFP9pu7GjXxudT1L/iv4P1b1FHmAm8Z6T439HhUPrei1sXfjXPYCabba9IgYHIQXmxvowfh6ttczI3PLe1LvXdEcQpx5vmz7/VAje1zvCZH9GSn2K7ZudnOfvNfKzuE50tI9PUqrWUP7sj/n+WFTPY+2Tv/sbm3HGcdq2rbqObRts+CkfAWA2zR9h7byF/JidIeK7QF46l7zd/h82CrqfwxmcX117jwmd5fXWMgLuG7ltUk2K3mtks1KJq/n8T2uEsVG/751TMpCrdl9b9aO8ul7qF93PgPNl++f4+JZVeOcx7CVF9rtxnjVXGsl97B/rnafQ3d8y4w9T918GK3ijYnZ9dXZMwfx7/htD3B3Td+hisMC8Gxtp+Otz+zyD1xcLWK1msV4UAYmZXHXTWjS7cZgPMteXzxiaJJZ/4ofm/aMo2ESmzvZXPd4sLnmfOagfqeYFWg3DXNt2Tzfil5jNdRHsp1h6F2kZ2beFZA9bfplAOCl0+ME4JnzHc6/t471/Fd8+/kjfv+u97LZ1+12492Xx+x1c2A9iV5nVMwyNJjF6uriYCaWdcwnn6K/meLmeK+U0+lxwr/n7wWAu2v6DtXjBAA4UzvaF5dxdZVPw1xMwdy05FM0P5nQJNe+jC+DYlBVPlVyJ/th1Nr2ksl7yHS2oUk+zOo5ZxwAwMMRnAAAr8azGGYFADwphuoAPHO+wwGo8/cCwN0ZqgMAAABwBsEJAAAAQILgBAAAACBBcAIAAACQIDgBAAAASBCcAAAAACQITgAAAAASBCcAAAAACa3rTKvVKh/uZE+XawA8ZU3f4QBQ57c9wGmaflvrcQIAAACQIDgBAAAASBCcAAAAACQITgAAAAASFIcFAAAAyCgOCwAAAHAGwQkAAABAguAEAAAAIEFwAgAAAJAgOAEAAABIEJwAAAAAJAhOAAAAABIEJwAAAAAJghMAAACABMEJAAAAQILgBAAAACBBcAIAAACQIDgBAAAASBCcAAAAACQITgAAAAASBCcAAAAACYITAAAAgATBCQAAAECC4AQAAAAgQXACAAAAkCA4AQAAAEgQnAAAAAAkCE4AAAAAEgQnAAAAAAmt60yr1Sof7mRPl2sAPEVN391wCn/HAwA0a/qNrccJAAAAQILgBAAAACBBcAIAAACQIDgBAAAASFAcFuCZ8t3NKfw5AQA4neKwAAAAAGcQnAAAAAAkCE4AAAAAEgQnAAAAAAmCEwAAAIAEwQkAAABAguAEAAAAIEFwAsAzsI5Jr7WZV783WZfPAQDA3yc4AQAAAEgQnABwd+t5TIa96LWK3iDFkj0eTmIyfw09Q9bF9fd6MdQTBgDgRRKcAHA382H0Ov0YTZexLJ8qZI+noxj1P8WLzxLWv+JHfv3LZUx//ArRCQDAyyM4AeAO5jHsT4vApDuI2eo6rq/LZbWK2XgQ3c12L1z7TXwsL7T78U20i9Wd+bDshTPM3jEAAJ4jwQkAZ1tPvsZ0s9aN8feruKgnBu12XFxexeJ6EZc3koSX5iIuF0VgtLi8KJ8DAOAlEZwAcA/v4s2LD0cAAHjNBCcA3MPv+HNyYY8TphQ+eWjLOuaT4V5R2l4v26fxsLvzDjcHzfbdK2ibF7Od79UnWef1W8p9Tj12/ZrWk16xb7/olxMxjX55rM3Sm+ydDwCAp0twAsDZ2u8/ljVMljHq9P7tDDr//YphrxP9UVljpbRcTqPfqcKRhD+T6LWyffcK2ubFbPvRycOMdRGEdPL6LbWDF8fOrvPUy3zzLrrd7n6dl/xxtbxrqIcCAMCTJDgB4Hzty/g+rmKBZYz6nWhtemX8/QAln7FnuuzGYDyL1bYg7SwG5evTfjrgmI5GWWuzfWersphtXsi2vI7lKDqdToyWeb3b3bFXs6rQbXad304r8dq+uIrFYhGLbN/CIGb542q5Ug8FAOC5EJwAcCfty0UtVMhsemUUAcrf7YHSjfFqEVeXF7teG+2LuFqNtwHHj1+p85f7bqvZ5oVsv8c2A8p0x6tNsLHd4uJqFxJNf5odBwDglRGcAHBnm54V16sbAUreA+WwbshD6Y6/N8/W036/nRp4+d+qWDnQvG87H1lT6I7je8PB29sNAAB4bQQnANxTuwxQ8mEt4xhU4UVeN+RowZGHVgtAfv85K7TpvK11OQEAgBrBCQAPpn1xGVeL1W7oy/Tr6QVVH4AABACAhyY4AeCBtePyS1UUdRmJUTN/xeq/+jw7AABwf4ITAP6ibrztlKt/3Tr+/C5XTfcLAMADEZwA8ODmP6fl2rt405BgLH/8aqhBso7J12q/tOXoU/Pwn/m3zVTCucGHpzbd7+/48w+HLAEA8HAEJwCcaR7DVit6w8lm2uG9PGC9jvmwF/0y/+iOP8cuwmjH++20N6P4NNnNurOeT2LY62yDj+OWMer0YjjZnTvfv1edNAbxZHKTztuGKZKzdmfvEwAAz4PgBIA7WU5Hm2mHO61WtKql04n+tEg/uoNZLA6m9m1fft8Wjl2O+tt9O/1RTJfdGOSz8hQvJ3RjnG3TjWVMR7tz5/uXZ43x6qoW1jyy+hTJWXuL9ylr96emHjcAADxFghMAznQRV6tZjMeD6HYPZ7HpRncwjtlqFYurpviiHZeLVcwG2XblM7lin0VcXbwpnzmicxmL/PzVvMcb1XkXcZDVPLLieg/bOvj4Xg0WAIBnonWdyf8F7FD2dLkGwFPku5tT+HMCAHC6pt9OepwAAAAAJAhOAAAAABIEJwAAAAAJghMAAACABMEJAAAAQILgBAAAACBBcAIAAACQIDgBAAAASBCcAAAAACQITgAAAAASBCcAAAAACYITAAAAgITWdabVapUPd7KnyzUAnqKm7244hb/jAQCaNf3G1uMEAAAAIEFwAgAAAJAgOAEAAABIEJwAAAAAJCgOCwAAAJBRHBYAAADgDIITAAAAgATBCQAAAECC4AQAAAAgQXACAAAAkCA4AQAAAEgQnAAAAAAkCE4AAAAAEgQnAAAAAAmCEwAAAIAEwQkAAABAQus602q1yocAAAAAVPQ4AQAAAEgQnAAAAAAkCE4AAAAAGkX8H3Qn9SqbHi7CAAAAAElFTkSuQmCC;" vertex="1" parent="1">
          <mxGeometry x="162" y="1720" width="568.16" height="316.56" as="geometry" />
        </mxCell>
      </root>
    </mxGraphModel>
  </diagram>
</mxfile>
